<svg id="svg" version="1.1" xmlns="http://www.w3.org/2000/svg" xmlns:xlink="http://www.w3.org/1999/xlink" width="400" height="400" viewBox="0, 0, 400,400"><g id="svgg"><path id="path0" d="M185.600 0.274 C 184.170 0.367,182.829 0.613,182.620 0.821 C 182.411 1.030,181.477 1.200,180.544 1.200 C 179.611 1.200,178.736 1.380,178.600 1.600 C 178.464 1.820,177.733 2.000,176.976 2.000 C 176.219 2.000,175.600 2.180,175.600 2.400 C 175.600 2.620,174.981 2.800,174.224 2.800 C 173.467 2.800,172.736 2.980,172.600 3.200 C 172.464 3.420,171.823 3.600,171.176 3.600 C 170.529 3.600,170.000 3.780,170.000 4.000 C 170.000 4.220,169.460 4.400,168.800 4.400 C 168.140 4.400,167.600 4.580,167.600 4.800 C 167.600 5.020,167.150 5.200,166.600 5.200 C 166.050 5.200,165.600 5.380,165.600 5.600 C 165.600 5.820,165.150 6.000,164.600 6.000 C 164.050 6.000,163.600 6.180,163.600 6.400 C 163.600 6.620,163.150 6.800,162.600 6.800 C 162.050 6.800,161.600 6.980,161.600 7.200 C 161.600 7.420,161.240 7.600,160.800 7.600 C 160.360 7.600,160.000 7.780,160.000 8.000 C 160.000 8.220,159.696 8.400,159.324 8.400 C 158.423 8.400,151.200 11.999,151.200 12.448 C 151.200 12.642,150.840 12.800,150.400 12.800 C 149.960 12.800,149.600 12.980,149.600 13.200 C 149.600 13.420,149.364 13.600,149.075 13.600 C 148.787 13.600,148.202 13.915,147.775 14.300 C 147.349 14.685,146.505 15.255,145.900 15.568 C 145.295 15.880,144.800 16.285,144.800 16.468 C 144.800 16.650,144.609 16.800,144.377 16.800 C 143.865 16.800,141.021 18.978,139.545 20.500 C 138.959 21.105,138.288 21.600,138.055 21.600 C 136.976 21.600,122.400 36.176,122.400 37.255 C 122.400 37.488,121.860 38.183,121.200 38.800 C 120.540 39.417,120.000 40.127,120.000 40.379 C 120.000 40.630,119.595 41.256,119.100 41.768 C 117.626 43.293,116.800 44.384,116.800 44.805 C 116.800 45.022,116.620 45.200,116.400 45.200 C 116.180 45.200,116.000 45.470,116.000 45.800 C 116.000 46.130,115.820 46.400,115.600 46.400 C 115.380 46.400,115.200 46.678,115.200 47.017 C 115.200 47.356,114.840 48.020,114.400 48.492 C 113.960 48.964,113.600 49.587,113.600 49.875 C 113.600 50.164,113.420 50.400,113.200 50.400 C 112.980 50.400,112.800 50.760,112.800 51.200 C 112.800 51.640,112.620 52.000,112.400 52.000 C 112.180 52.000,112.000 52.345,112.000 52.767 C 112.000 53.188,111.865 53.593,111.700 53.667 C 111.268 53.859,109.600 57.172,109.600 57.838 C 109.600 58.147,109.428 58.400,109.218 58.400 C 109.008 58.400,108.718 59.030,108.574 59.800 C 108.429 60.570,108.151 61.200,107.955 61.200 C 107.760 61.200,107.600 61.740,107.600 62.400 C 107.600 63.060,107.420 63.600,107.200 63.600 C 106.980 63.600,106.800 63.960,106.800 64.400 C 106.800 64.840,106.620 65.200,106.400 65.200 C 106.180 65.200,106.000 65.740,106.000 66.400 C 106.000 67.060,105.820 67.600,105.600 67.600 C 105.380 67.600,105.200 68.140,105.200 68.800 C 105.200 69.460,105.020 70.000,104.800 70.000 C 104.580 70.000,104.400 70.720,104.400 71.600 C 104.400 72.480,104.220 73.200,104.000 73.200 C 103.780 73.200,103.600 73.740,103.600 74.400 C 103.600 75.060,103.420 75.600,103.200 75.600 C 102.980 75.600,102.800 76.410,102.800 77.400 C 102.800 78.390,102.620 79.200,102.400 79.200 C 102.180 79.200,102.000 80.089,102.000 81.176 C 102.000 82.263,101.820 83.264,101.600 83.400 C 101.380 83.536,101.200 84.987,101.200 86.624 C 101.200 88.341,101.031 89.600,100.800 89.600 C 100.543 89.600,100.400 93.725,100.400 101.176 C 100.400 108.463,100.252 112.844,100.000 113.000 C 99.780 113.136,99.600 114.666,99.600 116.400 C 99.600 118.134,99.420 119.664,99.200 119.800 C 98.980 119.936,98.800 120.926,98.800 122.000 C 98.800 123.074,98.620 124.064,98.400 124.200 C 98.180 124.336,98.000 125.247,98.000 126.224 C 98.000 127.201,97.820 128.000,97.600 128.000 C 97.380 128.000,97.200 128.619,97.200 129.376 C 97.200 130.133,97.020 130.864,96.800 131.000 C 96.580 131.136,96.400 131.867,96.400 132.624 C 96.400 133.381,96.220 134.000,96.000 134.000 C 95.780 134.000,95.598 134.405,95.596 134.900 C 95.594 135.395,94.950 137.600,94.165 139.800 C 93.380 142.000,92.555 144.430,92.332 145.200 C 92.108 145.970,91.762 146.771,91.563 146.980 C 91.363 147.189,91.200 147.684,91.200 148.080 C 91.200 148.476,91.020 148.800,90.800 148.800 C 90.580 148.800,90.400 149.239,90.400 149.776 C 90.400 150.313,90.220 150.864,90.000 151.000 C 89.780 151.136,89.600 151.597,89.600 152.024 C 89.600 152.451,89.420 152.800,89.200 152.800 C 88.980 152.800,88.800 153.160,88.800 153.600 C 88.800 154.040,88.620 154.400,88.400 154.400 C 88.180 154.400,88.000 154.760,88.000 155.200 C 88.000 155.640,87.820 156.000,87.600 156.000 C 87.380 156.000,87.200 156.360,87.200 156.800 C 87.200 157.240,87.020 157.600,86.800 157.600 C 86.580 157.600,86.400 157.870,86.400 158.200 C 86.400 158.530,86.220 158.800,86.000 158.800 C 85.780 158.800,85.600 159.070,85.600 159.400 C 85.600 159.730,85.420 160.000,85.200 160.000 C 84.980 160.000,84.800 160.270,84.800 160.600 C 84.800 160.930,84.620 161.200,84.400 161.200 C 84.180 161.200,84.000 161.560,84.000 162.000 C 84.000 162.440,83.820 162.800,83.600 162.800 C 83.380 162.800,83.200 163.036,83.200 163.325 C 83.200 163.613,82.840 164.236,82.400 164.708 C 81.960 165.180,81.600 165.804,81.600 166.095 C 81.600 166.386,81.240 166.883,80.800 167.200 C 80.360 167.517,80.000 168.057,80.000 168.400 C 80.000 168.743,79.640 169.283,79.200 169.600 C 78.760 169.917,78.400 170.414,78.400 170.705 C 78.400 170.996,78.040 171.620,77.600 172.092 C 77.160 172.564,76.800 173.187,76.800 173.475 C 76.800 173.764,76.649 174.000,76.464 174.000 C 76.280 174.000,75.785 174.718,75.364 175.595 C 74.944 176.473,74.465 177.193,74.300 177.195 C 74.135 177.198,74.000 177.470,74.000 177.800 C 74.000 178.130,73.820 178.400,73.600 178.400 C 73.380 178.400,73.200 178.760,73.200 179.200 C 73.200 179.640,73.020 180.000,72.800 180.000 C 72.580 180.000,72.400 180.278,72.400 180.617 C 72.400 180.956,72.040 181.620,71.600 182.092 C 71.160 182.564,70.800 183.187,70.800 183.475 C 70.800 183.764,70.620 184.000,70.400 184.000 C 70.180 184.000,70.000 184.360,70.000 184.800 C 70.000 185.240,69.820 185.600,69.600 185.600 C 69.380 185.600,69.200 185.960,69.200 186.400 C 69.200 186.840,69.020 187.200,68.800 187.200 C 68.580 187.200,68.400 187.560,68.400 188.000 C 68.400 188.440,68.220 188.800,68.000 188.800 C 67.780 188.800,67.600 189.160,67.600 189.600 C 67.600 190.040,67.420 190.400,67.200 190.400 C 66.980 190.400,66.800 190.760,66.800 191.200 C 66.800 191.640,66.620 192.000,66.400 192.000 C 66.180 192.000,66.000 192.349,66.000 192.776 C 66.000 193.203,65.820 193.664,65.600 193.800 C 65.380 193.936,65.200 194.397,65.200 194.824 C 65.200 195.251,65.020 195.600,64.800 195.600 C 64.580 195.600,64.400 195.949,64.400 196.376 C 64.400 196.803,64.220 197.264,64.000 197.400 C 63.780 197.536,63.600 198.087,63.600 198.624 C 63.600 199.161,63.420 199.600,63.200 199.600 C 62.980 199.600,62.800 199.949,62.800 200.376 C 62.800 200.803,62.620 201.264,62.400 201.400 C 62.180 201.536,62.000 202.087,62.000 202.624 C 62.000 203.161,61.820 203.600,61.600 203.600 C 61.380 203.600,61.200 204.140,61.200 204.800 C 61.200 205.460,61.020 206.000,60.800 206.000 C 60.580 206.000,60.400 206.540,60.400 207.200 C 60.400 207.860,60.240 208.400,60.045 208.400 C 59.666 208.400,59.484 209.074,58.722 213.300 C 58.454 214.785,58.093 216.000,57.918 216.000 C 57.743 216.000,57.600 216.720,57.600 217.600 C 57.600 218.480,57.420 219.200,57.200 219.200 C 56.980 219.200,56.800 219.920,56.800 220.800 C 56.800 221.680,56.620 222.400,56.400 222.400 C 56.180 222.400,56.000 223.300,56.000 224.400 C 56.000 225.500,55.820 226.400,55.600 226.400 C 55.380 226.400,55.200 227.379,55.200 228.576 C 55.200 229.773,55.020 230.864,54.800 231.000 C 54.580 231.136,54.400 232.587,54.400 234.224 C 54.400 235.941,54.231 237.200,54.000 237.200 C 53.753 237.200,53.600 239.267,53.600 242.600 C 53.600 245.933,53.447 248.000,53.200 248.000 C 52.662 248.000,52.662 259.068,53.200 259.400 C 53.433 259.544,53.600 261.804,53.600 264.824 C 53.600 268.008,53.754 270.000,54.000 270.000 C 54.231 270.000,54.400 271.267,54.400 273.000 C 54.400 274.733,54.569 276.000,54.800 276.000 C 55.022 276.000,55.200 277.067,55.200 278.400 C 55.200 279.733,55.378 280.800,55.600 280.800 C 55.820 280.800,56.000 281.599,56.000 282.576 C 56.000 283.553,56.180 284.464,56.400 284.600 C 56.620 284.736,56.800 285.557,56.800 286.424 C 56.800 287.291,56.980 288.000,57.200 288.000 C 57.420 288.000,57.600 288.619,57.600 289.376 C 57.600 290.133,57.780 290.864,58.000 291.000 C 58.220 291.136,58.400 291.756,58.400 292.378 C 58.400 293.545,59.397 297.270,60.037 298.495 C 60.237 298.877,60.400 299.642,60.400 300.195 C 60.400 300.748,60.580 301.200,60.800 301.200 C 61.020 301.200,61.200 301.639,61.200 302.176 C 61.200 302.713,61.380 303.264,61.600 303.400 C 61.820 303.536,62.000 304.087,62.000 304.624 C 62.000 305.161,62.180 305.600,62.400 305.600 C 62.620 305.600,62.800 305.949,62.800 306.376 C 62.800 306.803,62.980 307.264,63.200 307.400 C 63.420 307.536,63.600 308.087,63.600 308.624 C 63.600 309.161,63.780 309.600,64.000 309.600 C 64.220 309.600,64.400 309.960,64.400 310.400 C 64.400 310.840,64.580 311.200,64.800 311.200 C 65.020 311.200,65.200 311.472,65.200 311.805 C 65.200 312.138,65.380 312.768,65.600 313.205 C 65.820 313.642,66.180 314.358,66.400 314.795 C 66.620 315.232,66.800 315.862,66.800 316.195 C 66.800 316.528,66.980 316.800,67.200 316.800 C 67.420 316.800,67.600 317.160,67.600 317.600 C 67.600 318.040,67.780 318.400,68.000 318.400 C 68.220 318.400,68.400 318.760,68.400 319.200 C 68.400 319.640,68.580 320.000,68.800 320.000 C 69.020 320.000,69.200 320.360,69.200 320.800 C 69.200 321.240,69.336 321.600,69.502 321.600 C 69.669 321.600,70.060 322.185,70.372 322.900 C 70.684 323.615,71.268 324.491,71.670 324.847 C 72.071 325.203,72.400 325.788,72.400 326.147 C 72.400 326.506,72.580 326.800,72.800 326.800 C 73.020 326.800,73.200 327.160,73.200 327.600 C 73.200 328.040,73.380 328.400,73.600 328.400 C 73.820 328.400,74.000 328.760,74.000 329.200 C 74.000 329.640,74.153 330.000,74.339 330.000 C 74.526 330.000,75.003 330.720,75.400 331.600 C 75.797 332.480,76.274 333.200,76.461 333.200 C 76.647 333.200,76.800 333.436,76.800 333.725 C 76.800 334.013,77.115 334.598,77.500 335.025 C 77.885 335.451,78.455 336.295,78.768 336.900 C 79.080 337.505,79.485 338.000,79.668 338.000 C 79.850 338.000,80.000 338.178,80.000 338.395 C 80.000 338.767,80.760 339.815,81.900 341.016 C 82.175 341.306,82.400 341.663,82.400 341.811 C 82.400 341.958,82.940 342.583,83.600 343.200 C 84.260 343.817,84.800 344.533,84.800 344.792 C 84.800 345.051,85.520 345.954,86.400 346.800 C 87.280 347.646,88.000 348.499,88.000 348.697 C 88.000 349.111,91.998 353.514,95.124 356.542 C 96.291 357.674,98.944 360.265,101.018 362.300 C 103.093 364.335,104.943 366.000,105.131 366.000 C 105.319 366.000,106.297 366.765,107.305 367.700 C 110.441 370.609,112.578 372.400,112.913 372.400 C 113.090 372.400,113.713 372.843,114.296 373.384 C 114.880 373.925,115.862 374.577,116.479 374.833 C 117.095 375.088,117.600 375.455,117.600 375.649 C 117.600 375.842,117.920 376.000,118.312 376.000 C 118.703 376.000,119.283 376.360,119.600 376.800 C 119.917 377.240,120.457 377.600,120.800 377.600 C 121.143 377.600,121.683 377.960,122.000 378.400 C 122.317 378.840,122.897 379.200,123.288 379.200 C 123.680 379.200,124.000 379.380,124.000 379.600 C 124.000 379.820,124.236 380.000,124.525 380.000 C 124.813 380.000,125.398 380.325,125.825 380.722 C 126.251 381.120,127.185 381.703,127.900 382.020 C 128.615 382.336,129.200 382.731,129.200 382.898 C 129.200 383.064,129.560 383.200,130.000 383.200 C 130.440 383.200,130.800 383.380,130.800 383.600 C 130.800 383.820,131.160 384.000,131.600 384.000 C 132.040 384.000,132.400 384.180,132.400 384.400 C 132.400 384.620,132.760 384.800,133.200 384.800 C 133.640 384.800,134.000 384.980,134.000 385.200 C 134.000 385.420,134.360 385.600,134.800 385.600 C 135.240 385.600,135.600 385.780,135.600 386.000 C 135.600 386.220,135.960 386.400,136.400 386.400 C 136.840 386.400,137.200 386.580,137.200 386.800 C 137.200 387.020,137.560 387.200,138.000 387.200 C 138.440 387.200,138.800 387.380,138.800 387.600 C 138.800 387.820,139.160 388.000,139.600 388.000 C 140.040 388.000,140.400 388.180,140.400 388.400 C 140.400 388.620,140.672 388.800,141.005 388.800 C 141.338 388.800,141.923 388.965,142.305 389.167 C 144.312 390.228,146.939 391.213,148.378 391.443 C 149.270 391.586,150.000 391.859,150.000 392.051 C 150.000 392.243,150.439 392.400,150.976 392.400 C 151.513 392.400,152.064 392.580,152.200 392.800 C 152.336 393.020,152.887 393.200,153.424 393.200 C 153.961 393.200,154.400 393.380,154.400 393.600 C 154.400 393.820,154.929 394.000,155.576 394.000 C 156.223 394.000,156.864 394.180,157.000 394.400 C 157.136 394.620,157.867 394.800,158.624 394.800 C 159.381 394.800,160.000 394.980,160.000 395.200 C 160.000 395.420,160.630 395.600,161.400 395.600 C 162.170 395.600,162.800 395.780,162.800 396.000 C 162.800 396.220,163.520 396.400,164.400 396.400 C 165.280 396.400,166.000 396.580,166.000 396.800 C 166.000 397.020,166.720 397.200,167.600 397.200 C 168.480 397.200,169.200 397.380,169.200 397.600 C 169.200 397.820,170.100 398.000,171.200 398.000 C 172.300 398.000,173.200 398.180,173.200 398.400 C 173.200 398.622,174.256 398.800,175.567 398.800 C 177.104 398.800,177.992 398.975,178.100 399.300 C 178.343 400.030,220.530 400.030,221.260 399.300 C 221.535 399.025,222.714 398.800,223.880 398.800 C 225.046 398.800,226.000 398.620,226.000 398.400 C 226.000 398.180,226.900 398.000,228.000 398.000 C 229.100 398.000,230.000 397.820,230.000 397.600 C 230.000 397.380,230.900 397.200,232.000 397.200 C 233.100 397.200,234.000 397.020,234.000 396.800 C 234.000 396.580,234.720 396.400,235.600 396.400 C 236.480 396.400,237.200 396.220,237.200 396.000 C 237.200 395.780,237.830 395.600,238.600 395.600 C 239.370 395.600,240.000 395.420,240.000 395.200 C 240.000 394.980,240.540 394.800,241.200 394.800 C 241.860 394.800,242.400 394.620,242.400 394.400 C 242.400 394.180,242.940 394.000,243.600 394.000 C 244.260 394.000,244.800 393.820,244.800 393.600 C 244.800 393.380,245.340 393.200,246.000 393.200 C 246.660 393.200,247.200 393.020,247.200 392.800 C 247.200 392.580,247.740 392.400,248.400 392.400 C 249.060 392.400,249.600 392.244,249.600 392.054 C 249.600 391.864,250.406 391.598,251.391 391.463 C 252.376 391.328,253.501 391.048,253.891 390.842 C 255.589 389.941,258.441 388.800,258.996 388.800 C 259.328 388.800,259.600 388.620,259.600 388.400 C 259.600 388.180,259.960 388.000,260.400 388.000 C 260.840 388.000,261.200 387.820,261.200 387.600 C 261.200 387.380,261.560 387.200,262.000 387.200 C 262.440 387.200,262.800 387.020,262.800 386.800 C 262.800 386.580,263.160 386.400,263.600 386.400 C 264.040 386.400,264.400 386.220,264.400 386.000 C 264.400 385.780,264.760 385.600,265.200 385.600 C 265.640 385.600,266.000 385.420,266.000 385.200 C 266.000 384.980,266.360 384.800,266.800 384.800 C 267.240 384.800,267.600 384.620,267.600 384.400 C 267.600 384.180,267.960 384.000,268.400 384.000 C 268.840 384.000,269.200 383.820,269.200 383.600 C 269.200 383.380,269.560 383.200,270.000 383.200 C 270.440 383.200,270.800 383.020,270.800 382.800 C 270.800 382.580,271.160 382.400,271.600 382.400 C 272.040 382.400,272.400 382.220,272.400 382.000 C 272.400 381.780,272.670 381.600,273.000 381.600 C 273.330 381.600,273.600 381.420,273.600 381.200 C 273.600 380.980,273.870 380.800,274.200 380.800 C 274.530 380.800,274.800 380.620,274.800 380.400 C 274.800 380.180,275.070 380.000,275.400 380.000 C 275.730 380.000,276.000 379.820,276.000 379.600 C 276.000 379.380,276.320 379.200,276.712 379.200 C 277.103 379.200,277.683 378.840,278.000 378.400 C 278.317 377.960,278.897 377.600,279.288 377.600 C 279.680 377.600,280.000 377.450,280.000 377.268 C 280.000 377.085,280.495 376.680,281.100 376.368 C 281.705 376.055,282.438 375.575,282.729 375.300 C 283.019 375.025,283.480 374.800,283.753 374.800 C 284.026 374.800,284.598 374.485,285.025 374.100 C 285.451 373.715,286.474 372.950,287.297 372.400 C 288.121 371.850,288.796 371.265,288.797 371.100 C 288.799 370.935,289.006 370.800,289.257 370.800 C 289.508 370.800,290.229 370.260,290.860 369.600 C 291.491 368.940,292.170 368.400,292.369 368.400 C 292.567 368.400,293.827 367.320,295.168 366.000 C 296.508 364.680,297.785 363.600,298.004 363.600 C 298.551 363.600,309.600 352.589,309.600 352.043 C 309.600 351.802,310.680 350.508,312.000 349.168 C 313.320 347.827,314.400 346.548,314.400 346.326 C 314.400 346.103,314.940 345.417,315.600 344.800 C 316.260 344.183,316.800 343.463,316.800 343.200 C 316.800 342.937,317.340 342.217,318.000 341.600 C 318.660 340.983,319.200 340.281,319.200 340.040 C 319.200 339.798,319.341 339.600,319.514 339.600 C 319.686 339.600,320.143 339.067,320.528 338.415 C 320.913 337.763,321.447 336.998,321.715 336.715 C 322.577 335.803,325.200 331.297,325.200 330.728 C 325.200 330.425,325.560 329.917,326.000 329.600 C 326.440 329.283,326.800 328.703,326.800 328.312 C 326.800 327.920,326.980 327.600,327.200 327.600 C 327.420 327.600,327.600 327.240,327.600 326.800 C 327.600 326.360,327.780 326.000,328.000 326.000 C 328.220 326.000,328.400 325.730,328.400 325.400 C 328.400 325.070,328.580 324.800,328.800 324.800 C 329.020 324.800,329.200 324.530,329.200 324.200 C 329.200 323.870,329.335 323.599,329.500 323.599 C 329.665 323.598,330.250 322.608,330.800 321.400 C 331.350 320.192,331.935 319.202,332.100 319.201 C 332.265 319.201,332.400 318.840,332.400 318.400 C 332.400 317.960,332.580 317.600,332.800 317.600 C 333.020 317.600,333.200 317.251,333.200 316.824 C 333.200 316.397,333.380 315.936,333.600 315.800 C 333.820 315.664,334.000 315.113,334.000 314.576 C 334.000 314.039,334.180 313.600,334.400 313.600 C 334.620 313.600,334.800 313.240,334.800 312.800 C 334.800 312.360,334.980 312.000,335.200 312.000 C 335.420 312.000,335.600 311.640,335.600 311.200 C 335.600 310.760,335.780 310.400,336.000 310.400 C 336.220 310.400,336.400 310.038,336.400 309.595 C 336.400 309.152,336.559 308.477,336.753 308.095 C 336.948 307.713,337.329 306.860,337.600 306.200 C 337.871 305.540,338.252 304.687,338.447 304.305 C 338.641 303.923,338.800 303.259,338.800 302.829 C 338.800 302.399,338.980 301.936,339.200 301.800 C 339.420 301.664,339.600 301.124,339.600 300.600 C 339.600 300.076,339.780 299.536,340.000 299.400 C 340.220 299.264,340.400 298.724,340.400 298.200 C 340.400 297.676,340.559 297.149,340.753 297.029 C 340.947 296.909,341.231 295.639,341.385 294.206 C 341.538 292.773,341.829 291.600,342.032 291.600 C 342.234 291.600,342.400 290.981,342.400 290.224 C 342.400 289.467,342.580 288.736,342.800 288.600 C 343.020 288.464,343.200 287.553,343.200 286.576 C 343.200 285.599,343.380 284.800,343.600 284.800 C 343.820 284.800,344.000 283.900,344.000 282.800 C 344.000 281.700,344.180 280.800,344.400 280.800 C 344.620 280.800,344.800 279.821,344.800 278.624 C 344.800 277.427,344.980 276.336,345.200 276.200 C 345.420 276.064,345.600 274.714,345.600 273.200 C 345.600 271.686,345.780 270.336,346.000 270.200 C 346.237 270.054,346.400 267.604,346.400 264.200 C 346.400 260.796,346.563 258.346,346.800 258.200 C 347.030 258.058,347.200 255.937,347.200 253.200 C 347.200 250.463,347.030 248.342,346.800 248.200 C 346.565 248.055,346.400 245.729,346.400 242.576 C 346.400 239.259,346.247 237.200,346.000 237.200 C 345.769 237.200,345.600 235.941,345.600 234.224 C 345.600 232.587,345.420 231.136,345.200 231.000 C 344.980 230.864,344.800 229.874,344.800 228.800 C 344.800 227.726,344.620 226.736,344.400 226.600 C 344.180 226.464,344.000 225.564,344.000 224.600 C 344.000 223.636,343.820 222.736,343.600 222.600 C 343.380 222.464,343.200 221.643,343.200 220.776 C 343.200 219.909,343.020 219.200,342.800 219.200 C 342.580 219.200,342.400 218.480,342.400 217.600 C 342.400 216.720,342.257 216.000,342.082 216.000 C 341.907 216.000,341.546 214.785,341.278 213.300 C 340.516 209.074,340.334 208.400,339.955 208.400 C 339.760 208.400,339.600 207.860,339.600 207.200 C 339.600 206.540,339.420 206.000,339.200 206.000 C 338.980 206.000,338.800 205.460,338.800 204.800 C 338.800 204.140,338.620 203.600,338.400 203.600 C 338.180 203.600,338.000 203.161,338.000 202.624 C 338.000 202.087,337.820 201.536,337.600 201.400 C 337.380 201.264,337.200 200.803,337.200 200.376 C 337.200 199.949,337.020 199.600,336.800 199.600 C 336.580 199.600,336.400 199.060,336.400 198.400 C 336.400 197.740,336.220 197.200,336.000 197.200 C 335.780 197.200,335.600 196.840,335.600 196.400 C 335.600 195.960,335.420 195.600,335.200 195.600 C 334.980 195.600,334.800 195.251,334.800 194.824 C 334.800 194.397,334.620 193.936,334.400 193.800 C 334.180 193.664,334.000 193.203,334.000 192.776 C 334.000 192.349,333.820 192.000,333.600 192.000 C 333.380 192.000,333.200 191.640,333.200 191.200 C 333.200 190.760,333.020 190.400,332.800 190.400 C 332.580 190.400,332.400 190.040,332.400 189.600 C 332.400 189.160,332.220 188.800,332.000 188.800 C 331.780 188.800,331.600 188.440,331.600 188.000 C 331.600 187.560,331.420 187.200,331.200 187.200 C 330.980 187.200,330.800 186.840,330.800 186.400 C 330.800 185.960,330.620 185.600,330.400 185.600 C 330.180 185.600,330.000 185.240,330.000 184.800 C 330.000 184.360,329.820 184.000,329.600 184.000 C 329.380 184.000,329.200 183.680,329.200 183.288 C 329.200 182.897,328.840 182.317,328.400 182.000 C 327.960 181.683,327.600 181.103,327.600 180.712 C 327.600 180.320,327.420 180.000,327.200 180.000 C 326.980 180.000,326.800 179.640,326.800 179.200 C 326.800 178.760,326.620 178.400,326.400 178.400 C 326.180 178.400,326.000 178.130,326.000 177.800 C 326.000 177.470,325.865 177.198,325.700 177.195 C 325.535 177.193,325.056 176.473,324.636 175.595 C 324.215 174.718,323.720 174.000,323.536 174.000 C 323.351 174.000,323.200 173.764,323.200 173.475 C 323.200 173.187,322.840 172.564,322.400 172.092 C 321.960 171.620,321.600 170.996,321.600 170.705 C 321.600 170.414,321.240 169.917,320.800 169.600 C 320.360 169.283,320.000 168.769,320.000 168.459 C 320.000 168.148,319.684 167.603,319.297 167.247 C 318.911 166.891,318.340 166.105,318.030 165.500 C 317.719 164.895,317.315 164.400,317.132 164.400 C 316.950 164.400,316.800 164.040,316.800 163.600 C 316.800 163.160,316.620 162.800,316.400 162.800 C 316.180 162.800,316.000 162.530,316.000 162.200 C 316.000 161.870,315.820 161.600,315.600 161.600 C 315.380 161.600,315.200 161.330,315.200 161.000 C 315.200 160.670,315.054 160.400,314.875 160.400 C 314.696 160.400,314.302 159.770,314.000 159.000 C 313.698 158.230,313.304 157.600,313.125 157.600 C 312.946 157.600,312.800 157.240,312.800 156.800 C 312.800 156.360,312.620 156.000,312.400 156.000 C 312.180 156.000,312.000 155.640,312.000 155.200 C 312.000 154.760,311.820 154.400,311.600 154.400 C 311.380 154.400,311.200 154.040,311.200 153.600 C 311.200 153.160,311.020 152.800,310.800 152.800 C 310.580 152.800,310.400 152.440,310.400 152.000 C 310.400 151.560,310.220 151.200,310.000 151.200 C 309.780 151.200,309.600 150.840,309.600 150.400 C 309.600 149.960,309.420 149.600,309.200 149.600 C 308.980 149.600,308.800 149.132,308.800 148.560 C 308.800 147.989,308.512 146.864,308.159 146.060 C 307.067 143.571,306.868 143.050,306.377 141.400 C 306.116 140.520,305.744 139.487,305.551 139.105 C 305.358 138.723,305.200 137.958,305.200 137.405 C 305.200 136.852,305.020 136.400,304.800 136.400 C 304.580 136.400,304.400 135.781,304.400 135.024 C 304.400 134.267,304.240 133.548,304.044 133.427 C 303.708 133.220,303.472 132.207,302.942 128.697 C 302.818 127.871,302.555 127.095,302.358 126.974 C 302.161 126.852,302.000 125.874,302.000 124.800 C 302.000 123.726,301.820 122.736,301.600 122.600 C 301.380 122.464,301.200 121.294,301.200 120.000 C 301.200 118.706,301.020 117.536,300.800 117.400 C 300.577 117.262,300.400 115.396,300.400 113.176 C 300.400 110.792,300.240 109.200,300.000 109.200 C 299.750 109.200,299.600 106.800,299.600 102.800 C 299.600 98.800,299.450 96.400,299.200 96.400 C 298.980 96.400,298.800 96.122,298.800 95.782 C 298.800 93.804,294.767 91.754,292.895 92.781 C 292.513 92.990,291.521 93.462,290.692 93.830 C 287.525 95.235,287.396 95.737,287.429 106.600 C 287.445 112.114,287.673 117.647,287.963 119.600 C 291.322 142.190,297.354 157.673,310.248 176.800 C 320.714 192.324,328.705 210.397,331.207 224.200 C 331.366 225.080,331.778 227.150,332.122 228.800 C 332.466 230.450,332.952 233.510,333.202 235.600 C 333.452 237.690,333.824 240.712,334.029 242.316 C 335.105 250.769,334.098 269.299,332.001 279.600 C 331.800 280.590,331.452 282.300,331.228 283.400 C 330.824 285.387,330.642 286.109,329.445 290.482 C 317.073 335.661,279.592 372.253,233.524 384.126 C 225.772 386.124,221.692 386.814,210.723 387.986 C 189.163 390.289,161.367 384.921,140.600 374.445 C 103.630 355.796,76.381 320.872,68.472 282.000 C 67.232 275.907,67.214 275.790,66.002 265.636 C 65.479 261.258,65.484 245.957,66.009 241.600 C 67.029 233.141,68.325 225.566,69.566 220.800 C 73.732 204.805,78.792 193.608,88.817 178.200 C 105.417 152.688,111.617 133.793,112.774 105.200 C 113.437 88.799,114.090 83.970,117.182 72.600 C 117.536 71.296,117.891 70.247,118.398 69.000 C 118.577 68.560,119.316 66.670,120.040 64.800 C 123.841 54.984,131.145 44.145,139.000 36.661 C 144.253 31.656,147.193 29.303,152.768 25.642 C 160.104 20.825,170.395 16.273,178.000 14.480 C 184.346 12.984,184.783 12.909,191.200 12.211 C 201.093 11.135,210.241 11.725,220.000 14.068 C 223.143 14.823,229.526 16.790,231.400 17.581 C 231.840 17.766,232.920 18.221,233.800 18.591 C 239.201 20.863,250.448 27.430,252.936 29.765 C 253.191 30.004,254.120 30.734,255.000 31.388 C 265.970 39.529,278.193 57.314,282.859 71.923 C 284.351 76.593,285.337 77.496,289.506 78.013 C 292.092 78.334,294.800 76.902,294.800 75.213 C 294.800 74.986,294.980 74.800,295.200 74.800 C 295.429 74.800,295.600 73.600,295.600 72.000 C 295.600 70.400,295.429 69.200,295.200 69.200 C 294.980 69.200,294.800 68.660,294.800 68.000 C 294.800 67.340,294.620 66.800,294.400 66.800 C 294.180 66.800,294.000 66.260,294.000 65.600 C 294.000 64.940,293.820 64.400,293.600 64.400 C 293.380 64.400,293.200 64.051,293.200 63.624 C 293.200 63.197,293.020 62.736,292.800 62.600 C 292.580 62.464,292.400 61.913,292.400 61.376 C 292.400 60.839,292.220 60.400,292.000 60.400 C 291.780 60.400,291.600 60.105,291.600 59.743 C 291.600 58.858,287.955 51.200,287.534 51.200 C 287.350 51.200,287.200 50.840,287.200 50.400 C 287.200 49.960,287.020 49.600,286.800 49.600 C 286.580 49.600,286.400 49.240,286.400 48.800 C 286.400 48.360,286.220 48.000,286.000 48.000 C 285.780 48.000,285.600 47.764,285.600 47.475 C 285.600 47.187,285.285 46.602,284.900 46.175 C 284.515 45.749,283.945 44.905,283.632 44.300 C 283.320 43.695,282.915 43.200,282.732 43.200 C 282.550 43.200,282.400 42.970,282.400 42.688 C 282.400 42.407,282.040 41.917,281.600 41.600 C 281.160 41.283,280.800 40.775,280.800 40.472 C 280.800 40.169,280.260 39.417,279.600 38.800 C 278.940 38.183,278.400 37.510,278.400 37.303 C 278.400 37.096,277.590 36.070,276.600 35.022 C 275.610 33.974,274.800 32.965,274.800 32.780 C 274.800 32.248,267.357 24.800,266.826 24.800 C 266.563 24.800,265.471 23.900,264.400 22.800 C 263.329 21.700,262.242 20.800,261.986 20.800 C 261.730 20.800,261.017 20.260,260.400 19.600 C 259.783 18.940,259.173 18.400,259.044 18.400 C 258.811 18.400,257.600 17.465,256.584 16.500 C 256.294 16.225,255.864 16.000,255.629 16.000 C 255.393 16.000,255.200 15.820,255.200 15.600 C 255.200 15.380,254.964 15.200,254.675 15.200 C 254.387 15.200,253.764 14.840,253.292 14.400 C 252.820 13.960,252.156 13.600,251.817 13.600 C 251.478 13.600,251.200 13.448,251.200 13.263 C 251.200 13.077,250.345 12.492,249.300 11.963 C 248.255 11.433,247.340 10.865,247.267 10.700 C 247.193 10.535,246.788 10.400,246.367 10.400 C 245.945 10.400,245.600 10.220,245.600 10.000 C 245.600 9.780,245.351 9.600,245.046 9.600 C 244.741 9.600,243.976 9.331,243.346 9.002 C 242.716 8.674,241.885 8.404,241.500 8.402 C 241.115 8.401,240.800 8.220,240.800 8.000 C 240.800 7.780,240.440 7.600,240.000 7.600 C 239.560 7.600,239.200 7.420,239.200 7.200 C 239.200 6.980,238.750 6.800,238.200 6.800 C 237.650 6.800,237.200 6.620,237.200 6.400 C 237.200 6.180,236.750 6.000,236.200 6.000 C 235.650 6.000,235.200 5.820,235.200 5.600 C 235.200 5.380,234.750 5.200,234.200 5.200 C 233.650 5.200,233.200 5.020,233.200 4.800 C 233.200 4.580,232.660 4.400,232.000 4.400 C 231.340 4.400,230.800 4.220,230.800 4.000 C 230.800 3.780,230.181 3.600,229.424 3.600 C 228.667 3.600,227.936 3.420,227.800 3.200 C 227.664 2.980,227.023 2.800,226.376 2.800 C 225.729 2.800,225.200 2.620,225.200 2.400 C 225.200 2.180,224.480 2.000,223.600 2.000 C 222.720 2.000,222.000 1.820,222.000 1.600 C 222.000 1.380,221.226 1.200,220.280 1.200 C 219.334 1.200,218.342 0.982,218.076 0.716 C 217.591 0.231,191.713 -0.121,185.600 0.274 M194.000 178.636 C 174.535 180.942,160.489 187.262,147.549 199.533 C 142.535 204.289,141.459 206.631,142.962 209.520 C 144.171 211.843,145.452 212.600,148.177 212.600 L 150.690 212.600 154.506 208.952 C 158.346 205.281,163.005 201.563,165.600 200.101 C 166.370 199.667,167.900 198.780,169.000 198.130 C 202.184 178.522,247.967 196.122,260.747 233.400 C 263.807 242.328,265.213 256.787,263.703 263.800 C 263.466 264.900,263.050 266.880,262.780 268.200 C 255.898 301.744,221.484 324.402,187.800 317.567 C 149.244 309.743,127.284 272.120,138.984 233.930 C 141.877 224.487,131.730 220.303,128.247 229.502 C 116.545 260.405,129.290 298.506,157.697 317.544 C 172.130 327.217,193.574 332.499,208.427 330.040 C 209.622 329.842,211.950 329.463,213.600 329.197 C 233.893 325.930,254.017 312.121,264.894 294.000 C 291.766 249.233,267.506 192.069,216.600 180.202 C 211.545 179.024,198.410 178.114,194.000 178.636 " stroke="none" fill="#050504" fill-rule="evenodd"></path><path id="path1" d="M192.800 12.272 C 184.723 13.104,176.305 14.983,169.735 17.421 C 165.503 18.991,157.485 22.760,157.267 23.282 C 157.193 23.457,156.962 23.600,156.753 23.600 C 156.544 23.600,154.524 24.841,152.263 26.358 C 137.364 36.354,126.071 50.065,120.107 65.400 C 115.356 77.614,113.883 85.806,113.200 103.800 C 112.649 118.338,111.531 126.590,108.827 136.100 C 108.592 136.925,108.242 138.185,108.048 138.900 C 107.595 140.574,105.670 146.360,105.220 147.400 C 105.030 147.840,104.573 149.010,104.204 150.000 C 102.653 154.169,97.970 163.849,95.329 168.349 C 94.085 170.467,91.513 174.540,89.613 177.400 C 86.438 182.178,85.566 183.581,82.895 188.200 C 81.422 190.749,76.405 201.201,75.600 203.400 C 75.439 203.840,75.122 204.650,74.896 205.200 C 73.462 208.693,72.800 210.598,72.800 211.230 C 72.800 211.627,72.620 212.064,72.400 212.200 C 72.180 212.336,72.000 212.799,72.000 213.229 C 72.000 213.659,71.829 214.323,71.620 214.705 C 71.005 215.830,69.283 222.877,67.981 229.600 C 64.371 248.236,65.392 270.179,70.801 290.200 C 71.277 291.960,71.762 293.808,71.881 294.306 C 71.999 294.804,72.254 295.310,72.448 295.430 C 72.641 295.549,72.800 296.076,72.800 296.600 C 72.800 297.124,72.980 297.664,73.200 297.800 C 73.420 297.936,73.600 298.363,73.600 298.748 C 73.600 299.134,73.960 300.195,74.400 301.106 C 74.840 302.016,75.200 302.952,75.200 303.186 C 75.200 303.420,75.365 303.923,75.566 304.305 C 75.768 304.687,76.240 305.720,76.616 306.600 C 77.936 309.694,81.415 316.634,83.245 319.827 C 86.234 325.041,91.112 332.447,93.215 334.964 C 93.599 335.424,95.314 337.510,97.026 339.600 C 101.361 344.894,109.988 353.473,115.002 357.476 C 115.881 358.177,117.609 359.561,118.843 360.551 C 126.215 366.467,142.376 375.571,151.600 379.004 C 152.590 379.373,153.760 379.830,154.200 380.020 C 160.202 382.616,172.922 385.626,184.800 387.260 C 189.945 387.968,210.552 387.973,215.400 387.268 C 227.032 385.575,238.125 383.047,243.800 380.795 C 244.240 380.621,245.680 380.083,247.000 379.600 C 251.426 377.981,252.546 377.492,259.000 374.363 C 267.022 370.473,276.844 364.321,283.206 359.200 C 292.093 352.047,300.244 343.711,307.065 334.800 C 309.068 332.183,314.800 323.775,314.800 323.454 C 314.800 323.359,315.537 322.068,316.438 320.586 C 318.866 316.589,324.800 304.223,324.800 303.160 C 324.800 302.956,324.959 302.477,325.153 302.095 C 327.708 297.073,331.540 282.607,332.808 273.200 C 335.023 256.766,334.508 241.328,331.220 225.600 C 330.286 221.132,328.821 215.511,328.380 214.705 C 328.171 214.323,328.000 213.659,328.000 213.229 C 328.000 212.799,327.820 212.336,327.600 212.200 C 327.380 212.064,327.200 211.549,327.200 211.056 C 327.200 210.563,327.057 209.989,326.882 209.780 C 326.707 209.571,326.335 208.680,326.055 207.800 C 325.776 206.920,325.403 205.840,325.227 205.400 C 325.051 204.960,324.727 204.150,324.507 203.600 C 322.305 198.094,316.781 187.182,314.756 184.338 C 314.340 183.754,314.000 183.166,314.000 183.030 C 314.000 182.895,311.872 179.593,309.271 175.692 C 303.510 167.052,300.185 161.157,297.487 154.800 C 297.160 154.030,296.512 152.547,296.047 151.504 C 295.581 150.462,295.200 149.424,295.200 149.199 C 295.200 148.974,294.992 148.387,294.738 147.895 C 293.744 145.974,293.600 145.584,293.600 144.829 C 293.600 144.399,293.420 143.936,293.200 143.800 C 292.980 143.664,292.800 143.201,292.800 142.771 C 292.800 142.341,292.638 141.677,292.439 141.295 C 292.054 140.553,291.348 138.106,290.046 133.000 C 287.199 121.828,285.777 99.993,287.665 96.440 C 288.574 94.729,291.195 92.800,292.611 92.800 C 293.081 92.800,293.200 92.152,293.200 89.600 C 293.200 87.733,293.033 86.400,292.800 86.400 C 292.575 86.400,292.400 85.275,292.400 83.824 C 292.400 82.407,292.220 81.136,292.000 81.000 C 291.780 80.864,291.600 80.223,291.600 79.576 C 291.600 78.447,291.527 78.400,289.784 78.400 C 286.538 78.400,283.880 76.357,283.018 73.200 C 282.776 72.314,281.690 69.262,280.811 67.000 C 274.800 51.529,262.425 36.385,247.400 26.115 C 232.991 16.266,210.179 10.482,192.800 12.272 M207.000 178.413 C 212.046 179.074,215.269 179.601,217.000 180.051 C 217.880 180.279,219.320 180.655,220.200 180.885 C 221.080 181.115,223.060 181.748,224.600 182.290 C 226.140 182.833,227.760 183.377,228.200 183.499 C 231.883 184.524,242.710 190.918,248.200 195.312 C 250.602 197.234,258.106 204.776,259.432 206.600 C 260.072 207.480,260.704 208.290,260.838 208.400 C 262.577 209.836,268.714 220.722,270.759 226.000 C 271.483 227.870,272.219 229.760,272.393 230.200 C 272.566 230.640,272.930 231.810,273.201 232.800 C 273.471 233.790,273.833 235.050,274.004 235.600 C 274.344 236.697,274.909 239.481,275.665 243.800 C 276.317 247.521,276.317 261.824,275.665 265.200 C 275.389 266.630,274.972 268.790,274.739 270.000 C 274.505 271.210,274.175 272.650,274.004 273.200 C 273.833 273.750,273.471 275.010,273.200 276.000 C 272.630 278.082,272.071 279.821,271.560 281.100 C 271.362 281.595,271.043 282.405,270.851 282.900 C 269.080 287.462,261.601 300.427,260.064 301.598 C 259.919 301.709,258.990 302.787,258.000 303.992 C 251.744 311.612,242.656 318.562,232.825 323.244 C 226.975 326.031,225.366 326.668,221.800 327.613 C 221.140 327.788,219.610 328.195,218.400 328.517 C 213.174 329.911,206.010 330.800,200.000 330.800 C 192.078 330.800,183.858 329.469,175.800 326.881 C 171.792 325.594,162.945 321.401,160.338 319.553 C 159.754 319.139,159.157 318.800,159.012 318.800 C 158.307 318.800,150.624 312.679,147.272 309.446 C 139.173 301.637,133.024 292.550,129.243 282.800 C 128.517 280.930,127.781 279.040,127.607 278.600 C 127.434 278.160,127.070 276.990,126.799 276.000 C 126.529 275.010,126.167 273.750,125.996 273.200 C 122.932 263.339,123.079 246.108,126.328 234.400 C 128.568 226.327,129.883 224.648,134.055 224.535 L 136.452 224.469 137.869 221.750 C 138.649 220.255,140.350 217.440,141.649 215.495 L 144.010 211.959 143.005 210.244 C 141.678 207.981,141.718 206.196,143.143 203.978 C 144.630 201.666,150.560 196.004,154.000 193.612 C 154.770 193.077,155.490 192.539,155.600 192.418 C 156.979 190.899,167.122 185.395,171.800 183.629 C 173.120 183.130,174.560 182.576,175.000 182.397 C 178.914 180.809,184.680 179.508,191.000 178.787 C 192.980 178.562,194.780 178.306,195.000 178.220 C 195.854 177.885,203.961 178.016,207.000 178.413 " stroke="none" fill="#bbeb6b" fill-rule="evenodd"></path><path id="path2" d="M197.717 11.897 C 199.211 11.974,201.551 11.974,202.917 11.896 C 204.282 11.818,203.060 11.755,200.200 11.755 C 197.340 11.756,196.222 11.820,197.717 11.897 M191.905 12.283 C 192.402 12.379,193.122 12.375,193.505 12.275 C 193.887 12.175,193.480 12.096,192.600 12.101 C 191.720 12.105,191.407 12.187,191.905 12.283 M206.900 12.276 C 207.285 12.376,207.915 12.376,208.300 12.276 C 208.685 12.175,208.370 12.093,207.600 12.093 C 206.830 12.093,206.515 12.175,206.900 12.276 M186.000 12.807 C 185.379 13.011,185.909 13.051,187.400 12.912 C 188.720 12.789,189.875 12.624,189.967 12.544 C 190.289 12.265,186.988 12.484,186.000 12.807 M210.033 12.544 C 210.125 12.624,211.280 12.789,212.600 12.912 C 214.091 13.051,214.621 13.011,214.000 12.807 C 213.012 12.484,209.711 12.265,210.033 12.544 M181.800 13.619 C 181.242 13.871,181.485 13.907,182.600 13.738 C 183.480 13.604,184.275 13.428,184.367 13.347 C 184.710 13.044,182.568 13.271,181.800 13.619 M215.633 13.347 C 215.725 13.428,216.520 13.604,217.400 13.738 C 218.515 13.907,218.758 13.871,218.200 13.619 C 217.432 13.271,215.290 13.044,215.633 13.347 M178.200 14.419 C 177.642 14.671,177.885 14.707,179.000 14.538 C 179.880 14.404,180.675 14.228,180.767 14.147 C 181.110 13.844,178.968 14.071,178.200 14.419 M175.200 15.200 C 174.405 15.714,175.404 15.714,176.600 15.200 L 177.400 14.856 176.600 14.834 C 176.160 14.822,175.530 14.987,175.200 15.200 M243.200 23.564 C 243.750 24.014,244.380 24.383,244.600 24.385 C 245.028 24.388,244.305 23.834,243.000 23.160 C 242.469 22.885,242.536 23.021,243.200 23.564 M151.931 26.183 C 149.806 27.604,147.958 28.945,147.823 29.162 C 147.602 29.521,154.876 24.745,155.780 23.939 C 156.761 23.064,155.469 23.817,151.931 26.183 M251.400 28.965 C 252.060 29.532,252.765 29.997,252.967 29.998 C 253.401 30.000,253.396 29.996,251.600 28.837 L 250.200 27.934 251.400 28.965 M146.376 30.113 C 144.090 31.898,143.497 32.429,143.639 32.565 C 143.728 32.650,144.610 32.018,145.600 31.161 C 147.270 29.715,147.797 29.003,146.376 30.113 M253.600 30.488 C 253.600 30.566,254.455 31.333,255.500 32.192 C 256.545 33.051,257.040 33.340,256.600 32.834 C 255.822 31.939,253.600 30.202,253.600 30.488 M138.272 37.473 C 135.709 40.043,133.699 42.233,133.806 42.339 C 133.913 42.446,134.045 42.452,134.100 42.353 C 134.155 42.254,136.267 40.064,138.793 37.487 C 141.320 34.909,143.285 32.800,143.159 32.800 C 143.034 32.800,140.835 34.903,138.272 37.473 M258.400 34.439 C 258.400 34.560,259.750 36.008,261.400 37.658 C 263.050 39.308,264.400 40.550,264.400 40.419 C 264.400 40.288,263.050 38.839,261.400 37.200 C 259.750 35.561,258.400 34.319,258.400 34.439 M132.541 43.700 C 131.210 45.202,129.120 48.000,129.330 48.000 C 129.438 48.000,130.446 46.830,131.570 45.400 C 133.588 42.832,134.091 41.953,132.541 43.700 M271.482 49.889 C 273.952 53.549,275.376 55.433,274.587 54.000 C 273.783 52.540,269.581 46.436,269.230 46.219 C 269.017 46.087,270.030 47.738,271.482 49.889 M125.952 52.900 C 125.690 53.395,125.215 54.250,124.896 54.800 C 124.339 55.759,124.343 55.767,124.988 55.000 C 125.786 54.052,126.905 52.000,126.624 52.000 C 126.516 52.000,126.214 52.405,125.952 52.900 M277.878 60.595 C 278.244 61.362,278.614 61.919,278.701 61.832 C 278.884 61.649,277.670 59.200,277.396 59.200 C 277.295 59.200,277.512 59.828,277.878 60.595 M116.649 74.215 C 116.512 74.573,116.415 75.166,116.434 75.533 C 116.453 75.900,116.627 75.669,116.821 75.020 C 117.198 73.758,117.065 73.133,116.649 74.215 M115.800 77.600 C 115.648 78.291,115.607 78.941,115.709 79.042 C 115.811 79.144,116.009 78.653,116.150 77.950 C 116.483 76.283,116.160 75.960,115.800 77.600 M287.246 78.037 C 287.551 78.230,288.610 78.376,289.600 78.362 C 291.733 78.332,291.355 78.140,288.646 77.876 C 287.442 77.759,286.905 77.821,287.246 78.037 M115.056 80.484 C 114.921 80.988,114.827 81.760,114.846 82.200 C 114.865 82.640,115.045 82.298,115.246 81.440 C 115.636 79.778,115.470 78.940,115.056 80.484 M114.101 87.000 C 114.105 87.880,114.187 88.193,114.283 87.695 C 114.379 87.198,114.375 86.478,114.275 86.095 C 114.175 85.713,114.096 86.120,114.101 87.000 M113.693 90.400 C 113.693 91.170,113.775 91.485,113.876 91.100 C 113.976 90.715,113.976 90.085,113.876 89.700 C 113.775 89.315,113.693 89.630,113.693 90.400 M113.337 95.000 C 113.339 96.760,113.409 97.430,113.493 96.489 C 113.578 95.549,113.577 94.109,113.491 93.289 C 113.405 92.470,113.336 93.240,113.337 95.000 M287.056 97.684 C 286.921 98.188,286.844 101.570,286.884 105.200 L 286.957 111.800 287.179 104.400 C 287.300 100.330,287.378 96.948,287.351 96.884 C 287.324 96.820,287.191 97.180,287.056 97.684 M112.951 105.600 C 112.951 108.130,113.016 109.165,113.096 107.900 C 113.175 106.635,113.175 104.565,113.096 103.300 C 113.016 102.035,112.951 103.070,112.951 105.600 M112.534 113.200 C 112.534 114.850,112.605 115.525,112.691 114.700 C 112.778 113.875,112.778 112.525,112.691 111.700 C 112.605 110.875,112.534 111.550,112.534 113.200 M287.328 114.400 C 287.328 115.830,287.401 116.415,287.489 115.700 C 287.578 114.985,287.578 113.815,287.489 113.100 C 287.401 112.385,287.328 112.970,287.328 114.400 M112.093 118.000 C 112.093 118.770,112.175 119.085,112.276 118.700 C 112.376 118.315,112.376 117.685,112.276 117.300 C 112.175 116.915,112.093 117.230,112.093 118.000 M111.644 120.800 C 111.617 121.570,111.434 122.830,111.236 123.600 C 110.723 125.602,110.347 128.885,110.778 127.600 C 111.375 125.824,112.100 121.006,111.893 120.191 C 111.770 119.703,111.674 119.937,111.644 120.800 M288.101 122.200 C 288.105 123.080,288.187 123.393,288.283 122.895 C 288.379 122.398,288.375 121.678,288.275 121.295 C 288.175 120.913,288.096 121.320,288.101 122.200 M110.054 129.867 C 110.025 130.344,109.896 131.064,109.770 131.467 C 109.552 132.161,109.564 132.162,109.996 131.488 C 110.247 131.097,110.375 130.377,110.281 129.888 C 110.109 129.001,110.109 129.001,110.054 129.867 M289.606 131.233 C 289.609 131.765,289.789 132.470,290.006 132.800 C 290.282 133.222,290.323 132.985,290.142 132.000 C 289.825 130.275,289.598 129.949,289.606 131.233 M109.254 133.067 C 109.225 133.544,109.096 134.264,108.970 134.667 C 108.752 135.361,108.764 135.362,109.196 134.688 C 109.447 134.297,109.575 133.577,109.481 133.088 C 109.309 132.201,109.309 132.201,109.254 133.067 M290.406 134.433 C 290.409 134.965,290.589 135.670,290.806 136.000 C 291.082 136.422,291.123 136.185,290.942 135.200 C 290.625 133.475,290.398 133.149,290.406 134.433 M108.446 136.067 C 108.421 136.434,108.296 137.064,108.170 137.467 C 107.952 138.162,107.963 138.163,108.397 137.487 C 108.648 137.096,108.773 136.466,108.673 136.087 C 108.511 135.468,108.488 135.466,108.446 136.067 M291.206 137.433 C 291.209 137.855,291.395 138.470,291.618 138.800 C 291.915 139.238,291.952 139.076,291.756 138.200 C 291.427 136.729,291.198 136.410,291.206 137.433 M97.434 163.874 C 96.653 165.344,96.076 166.609,96.152 166.685 C 96.227 166.761,96.954 165.557,97.766 164.011 C 98.579 162.465,99.156 161.200,99.049 161.200 C 98.941 161.200,98.215 162.403,97.434 163.874 M302.760 165.400 C 303.434 166.705,303.988 167.428,303.985 167.000 C 303.983 166.780,303.614 166.150,303.164 165.600 C 302.621 164.936,302.485 164.869,302.760 165.400 M95.108 168.100 C 94.233 169.449,93.448 171.056,93.887 170.600 C 94.448 170.017,96.098 167.200,95.879 167.200 C 95.776 167.200,95.429 167.605,95.108 168.100 M304.609 168.626 C 304.981 169.301,305.641 170.291,306.076 170.826 L 306.867 171.800 306.191 170.574 C 305.819 169.899,305.159 168.909,304.724 168.374 L 303.933 167.400 304.609 168.626 M92.953 171.700 C 91.576 174.036,91.486 174.235,92.187 173.400 C 93.000 172.432,93.700 171.200,93.438 171.200 C 93.333 171.200,93.115 171.425,92.953 171.700 M193.800 178.357 C 192.920 178.491,195.691 178.600,199.958 178.600 C 204.225 178.600,207.015 178.475,206.158 178.323 C 204.293 177.992,196.054 178.014,193.800 178.357 M187.400 179.203 C 186.885 179.426,187.313 179.467,188.600 179.318 C 189.700 179.191,190.675 179.023,190.767 178.944 C 191.114 178.645,188.164 178.872,187.400 179.203 M209.233 178.946 C 209.325 179.026,210.390 179.194,211.600 179.319 C 213.020 179.466,213.446 179.429,212.800 179.213 C 211.809 178.883,208.913 178.665,209.233 178.946 M183.200 180.000 C 182.436 180.494,183.258 180.494,184.800 180.000 L 185.800 179.680 184.800 179.646 C 184.250 179.627,183.530 179.787,183.200 180.000 M214.833 179.744 C 214.925 179.823,215.540 180.008,216.200 180.156 C 217.076 180.352,217.238 180.315,216.800 180.018 C 216.260 179.653,214.432 179.398,214.833 179.744 M180.000 180.800 C 179.205 181.314,180.204 181.314,181.400 180.800 L 182.200 180.456 181.400 180.434 C 180.960 180.422,180.330 180.587,180.000 180.800 M177.200 181.600 C 176.667 181.945,176.667 181.988,177.200 181.988 C 177.530 181.988,178.070 181.813,178.400 181.600 C 178.933 181.255,178.933 181.212,178.400 181.212 C 178.070 181.212,177.530 181.387,177.200 181.600 M85.000 184.000 C 84.659 184.660,84.469 185.200,84.579 185.200 C 84.689 185.200,85.059 184.660,85.400 184.000 C 85.741 183.340,85.931 182.800,85.821 182.800 C 85.711 182.800,85.341 183.340,85.000 184.000 M168.000 185.200 C 167.230 185.622,166.780 185.966,167.000 185.966 C 167.220 185.966,168.030 185.622,168.800 185.200 C 169.570 184.778,170.020 184.434,169.800 184.434 C 169.580 184.434,168.770 184.778,168.000 185.200 M161.700 188.446 C 160.337 189.319,159.895 189.906,161.100 189.243 C 162.018 188.739,163.456 187.627,163.200 187.619 C 163.090 187.616,162.415 187.988,161.700 188.446 M236.800 187.764 C 236.800 187.873,237.925 188.617,239.300 189.419 C 240.675 190.220,242.416 191.342,243.168 191.911 C 243.921 192.480,244.407 192.735,244.248 192.478 C 243.751 191.673,236.800 187.274,236.800 187.764 M81.814 189.435 C 81.441 190.004,81.205 190.538,81.289 190.622 C 81.373 190.707,81.758 190.241,82.144 189.588 C 83.006 188.128,82.748 188.009,81.814 189.435 M317.560 189.000 C 318.234 190.305,318.788 191.028,318.785 190.600 C 318.783 190.380,318.414 189.750,317.964 189.200 C 317.421 188.536,317.285 188.469,317.560 189.000 M158.200 190.635 L 157.000 191.666 158.400 190.763 C 160.196 189.604,160.201 189.600,159.767 189.602 C 159.565 189.603,158.860 190.068,158.200 190.635 M192.400 190.608 C 183.501 191.815,175.138 194.503,169.000 198.130 C 167.900 198.780,166.370 199.667,165.600 200.101 C 163.005 201.563,158.346 205.281,154.506 208.952 L 150.690 212.600 148.177 212.600 C 144.407 212.600,142.103 210.111,142.512 206.480 C 142.637 205.375,142.580 204.904,142.363 205.246 C 141.708 206.280,141.996 208.523,143.005 210.244 L 144.010 211.959 141.625 215.530 C 140.313 217.494,138.592 220.357,137.801 221.892 C 136.500 224.414,136.258 224.669,135.281 224.544 C 134.490 224.444,134.576 224.522,135.600 224.835 C 139.450 226.012,140.525 228.900,138.984 233.930 C 123.786 283.538,165.812 328.720,216.000 316.731 C 238.652 311.320,258.065 291.179,262.780 268.200 C 263.050 266.880,263.466 264.900,263.703 263.800 C 264.845 258.498,264.071 245.317,262.200 238.200 C 254.063 207.245,223.480 186.393,192.400 190.608 M78.552 195.900 C 78.174 196.725,77.795 197.535,77.709 197.700 C 77.623 197.865,77.645 198.000,77.758 198.000 C 77.870 198.000,78.271 197.325,78.648 196.500 C 79.026 195.675,79.405 194.865,79.491 194.700 C 79.577 194.535,79.555 194.400,79.442 194.400 C 79.330 194.400,78.929 195.075,78.552 195.900 M147.696 199.100 C 144.567 202.176,144.413 202.371,146.965 200.024 C 152.020 195.373,152.198 195.200,151.922 195.200 C 151.780 195.200,149.878 196.955,147.696 199.100 M248.000 195.325 C 248.000 195.394,248.585 195.979,249.300 196.625 L 250.600 197.800 249.425 196.500 C 248.330 195.288,248.000 195.016,248.000 195.325 M253.600 200.589 C 255.250 202.342,256.645 203.857,256.700 203.955 C 256.755 204.053,256.885 204.049,256.988 203.945 C 257.091 203.842,255.696 202.327,253.888 200.579 L 250.600 197.400 253.600 200.589 M77.200 198.484 C 77.200 198.604,76.928 199.354,76.595 200.151 C 76.262 200.948,76.079 201.600,76.189 201.600 C 76.506 201.600,77.633 198.700,77.405 198.472 C 77.292 198.359,77.200 198.365,77.200 198.484 M258.665 206.200 C 260.331 208.194,260.913 208.614,259.633 206.900 C 258.084 204.824,257.711 204.400,257.436 204.400 C 257.284 204.400,257.837 205.210,258.665 206.200 M260.800 208.535 C 260.800 208.843,265.517 215.994,266.119 216.600 C 266.752 217.235,266.093 216.137,263.481 212.200 C 260.812 208.177,260.800 208.161,260.800 208.535 M70.629 216.629 C 70.481 217.215,70.438 217.772,70.532 217.866 C 70.627 217.960,70.824 217.558,70.971 216.971 C 71.119 216.385,71.162 215.828,71.068 215.734 C 70.973 215.640,70.776 216.042,70.629 216.629 M328.856 216.000 C 328.856 216.330,329.011 216.960,329.200 217.400 C 329.417 217.904,329.544 217.978,329.544 217.600 C 329.544 217.270,329.389 216.640,329.200 216.200 C 328.983 215.696,328.856 215.622,328.856 216.000 M69.800 219.600 C 69.650 220.073,69.617 220.550,69.727 220.660 C 69.837 220.770,70.050 220.473,70.200 220.000 C 70.350 219.527,70.383 219.050,70.273 218.940 C 70.163 218.830,69.950 219.127,69.800 219.600 M69.029 222.629 C 68.881 223.215,68.851 223.784,68.961 223.894 C 69.071 224.004,69.281 223.615,69.429 223.029 C 69.576 222.442,69.606 221.873,69.496 221.763 C 69.386 221.653,69.176 222.042,69.029 222.629 M330.434 222.200 C 330.422 222.640,330.587 223.270,330.800 223.600 C 331.314 224.395,331.314 223.396,330.800 222.200 L 330.456 221.400 330.434 222.200 M130.031 225.836 C 129.354 226.405,128.805 227.080,128.812 227.336 C 128.819 227.591,129.015 227.473,129.247 227.073 C 129.480 226.673,130.239 225.998,130.935 225.574 C 131.631 225.150,131.989 224.802,131.731 224.801 C 131.473 224.801,130.708 225.266,130.031 225.836 M68.250 226.450 C 67.917 228.117,68.240 228.440,68.600 226.800 C 68.752 226.109,68.793 225.459,68.691 225.358 C 68.589 225.256,68.391 225.747,68.250 226.450 M331.256 226.000 C 331.256 226.330,331.411 226.960,331.600 227.400 C 331.817 227.904,331.944 227.978,331.944 227.600 C 331.944 227.270,331.789 226.640,331.600 226.200 C 331.383 225.696,331.256 225.622,331.256 226.000 M67.422 230.622 C 67.272 231.425,67.228 232.162,67.326 232.260 C 67.424 232.357,67.627 231.781,67.778 230.978 C 67.928 230.175,67.972 229.438,67.874 229.340 C 67.776 229.243,67.573 229.819,67.422 230.622 M332.068 230.000 C 332.062 230.550,332.211 231.360,332.400 231.800 L 332.744 232.600 332.732 231.800 C 332.726 231.360,332.576 230.550,332.400 230.000 L 332.080 229.000 332.068 230.000 M126.649 233.015 C 126.512 233.373,126.415 233.966,126.434 234.333 C 126.453 234.700,126.627 234.469,126.821 233.820 C 127.198 232.558,127.065 231.933,126.649 233.015 M66.585 236.185 C 66.430 237.423,66.390 238.523,66.495 238.629 C 66.601 238.734,66.807 237.801,66.954 236.554 C 67.100 235.307,67.141 234.207,67.043 234.110 C 66.946 234.012,66.739 234.946,66.585 236.185 M332.893 235.000 C 332.894 235.660,333.032 236.740,333.200 237.400 C 333.623 239.063,333.642 237.426,333.223 235.400 C 332.945 234.055,332.892 233.991,332.893 235.000 M125.849 235.815 C 125.712 236.173,125.618 236.856,125.641 237.333 C 125.667 237.881,125.803 237.686,126.010 236.803 C 126.360 235.316,126.265 234.733,125.849 235.815 M273.844 236.200 C 274.173 237.671,274.402 237.990,274.394 236.967 C 274.391 236.545,274.205 235.930,273.982 235.600 C 273.685 235.162,273.648 235.324,273.844 236.200 M274.673 240.000 C 274.804 240.990,274.976 241.875,275.056 241.967 C 275.357 242.314,275.128 239.764,274.790 239.000 C 274.553 238.466,274.514 238.798,274.673 240.000 M125.049 239.415 C 124.912 239.773,124.821 240.546,124.846 241.133 C 124.880 241.932,124.970 241.798,125.204 240.600 C 125.535 238.900,125.462 238.340,125.049 239.415 M65.860 242.890 C 65.721 244.051,65.633 246.710,65.665 248.800 C 65.718 252.245,65.751 252.058,66.022 246.800 C 66.337 240.692,66.282 239.378,65.860 242.890 M333.894 244.800 C 334.012 246.890,334.174 248.675,334.254 248.767 C 334.526 249.077,334.343 244.610,334.010 242.800 C 333.782 241.566,333.746 242.195,333.894 244.800 M124.253 244.436 C 124.114 245.131,124.026 246.713,124.057 247.950 C 124.108 249.910,124.154 249.762,124.415 246.800 C 124.731 243.207,124.672 242.341,124.253 244.436 M275.720 246.800 C 275.720 248.010,275.795 248.505,275.887 247.900 C 275.978 247.295,275.978 246.305,275.887 245.700 C 275.795 245.095,275.720 245.590,275.720 246.800 M123.744 254.400 C 123.744 256.490,123.812 257.345,123.894 256.300 C 123.976 255.255,123.976 253.545,123.894 252.500 C 123.812 251.455,123.744 252.310,123.744 254.400 M276.146 254.600 C 276.147 256.800,276.214 257.649,276.295 256.487 C 276.376 255.324,276.376 253.524,276.293 252.487 C 276.211 251.449,276.145 252.400,276.146 254.600 M65.635 259.233 C 65.654 261.305,65.807 263.900,65.975 265.000 C 66.152 266.164,66.198 264.660,66.085 261.400 C 65.861 254.982,65.583 253.642,65.635 259.233 M333.864 262.151 C 333.701 264.544,333.648 266.581,333.745 266.678 C 333.992 266.926,334.521 259.505,334.322 258.568 C 334.233 258.146,334.026 259.758,333.864 262.151 M124.047 261.433 C 124.073 262.735,124.231 264.340,124.397 265.000 C 124.564 265.661,124.608 264.672,124.494 262.800 C 124.255 258.840,123.979 257.996,124.047 261.433 M275.672 261.650 C 275.632 262.668,275.511 264.108,275.401 264.850 L 275.203 266.200 275.622 264.865 C 275.852 264.131,275.974 262.691,275.893 261.665 L 275.744 259.800 275.672 261.650 M124.828 267.833 C 124.844 268.475,125.016 269.360,125.210 269.800 C 125.447 270.334,125.486 270.002,125.327 268.800 C 125.046 266.680,124.788 266.180,124.828 267.833 M274.854 267.600 C 274.819 268.150,274.696 269.050,274.583 269.600 L 274.377 270.600 274.807 269.615 C 275.043 269.074,275.165 268.174,275.078 267.615 L 274.920 266.600 274.854 267.600 M66.501 269.800 C 66.505 270.680,66.587 270.993,66.683 270.495 C 66.779 269.998,66.775 269.278,66.675 268.895 C 66.575 268.513,66.496 268.920,66.501 269.800 M333.015 271.015 C 332.861 272.254,332.817 273.350,332.919 273.452 C 333.020 273.554,333.230 272.623,333.385 271.385 C 333.539 270.146,333.583 269.050,333.481 268.948 C 333.380 268.846,333.170 269.777,333.015 271.015 M125.606 271.633 C 125.609 272.165,125.789 272.870,126.006 273.200 C 126.282 273.622,126.323 273.385,126.142 272.400 C 125.825 270.675,125.598 270.349,125.606 271.633 M274.046 271.667 C 274.021 272.034,273.896 272.664,273.770 273.067 C 273.552 273.762,273.563 273.763,273.997 273.087 C 274.248 272.696,274.373 272.066,274.273 271.687 C 274.111 271.068,274.088 271.066,274.046 271.667 M126.406 274.633 C 126.409 275.055,126.595 275.670,126.818 276.000 C 127.115 276.438,127.152 276.276,126.956 275.400 C 126.627 273.929,126.398 273.610,126.406 274.633 M67.280 275.800 C 67.280 276.240,67.424 277.050,67.600 277.600 C 67.854 278.392,67.920 278.433,67.920 277.800 C 67.920 277.360,67.776 276.550,67.600 276.000 C 67.346 275.208,67.280 275.167,67.280 275.800 M332.222 276.622 C 332.072 277.425,332.028 278.162,332.126 278.260 C 332.224 278.357,332.427 277.781,332.578 276.978 C 332.728 276.175,332.772 275.438,332.674 275.340 C 332.576 275.243,332.373 275.819,332.222 276.622 M68.056 280.200 C 68.056 280.640,68.211 281.360,68.400 281.800 L 68.744 282.600 68.744 281.800 C 68.744 281.360,68.589 280.640,68.400 280.200 L 68.056 279.400 68.056 280.200 M331.429 280.629 C 331.281 281.215,331.251 281.784,331.361 281.894 C 331.471 282.004,331.681 281.615,331.829 281.029 C 331.976 280.442,332.006 279.873,331.896 279.763 C 331.786 279.653,331.576 280.042,331.429 280.629 M68.834 284.000 C 68.846 284.330,69.011 284.960,69.200 285.400 L 69.544 286.200 69.566 285.400 C 69.578 284.960,69.413 284.330,69.200 284.000 C 68.855 283.467,68.815 283.467,68.834 284.000 M330.673 284.153 C 330.523 284.545,330.411 285.166,330.425 285.533 C 330.442 285.975,330.581 285.874,330.837 285.234 C 331.049 284.703,331.161 284.082,331.085 283.854 C 331.009 283.627,330.824 283.761,330.673 284.153 M69.612 287.200 C 69.612 287.530,69.787 288.070,70.000 288.400 C 70.345 288.933,70.388 288.933,70.388 288.400 C 70.388 288.070,70.213 287.530,70.000 287.200 C 69.655 286.667,69.612 286.667,69.612 287.200 M329.800 287.600 C 329.650 288.073,329.617 288.550,329.727 288.660 C 329.837 288.770,330.050 288.473,330.200 288.000 C 330.350 287.527,330.383 287.050,330.273 286.940 C 330.163 286.830,329.950 287.127,329.800 287.600 M267.800 288.800 C 267.459 289.460,267.269 290.000,267.379 290.000 C 267.489 290.000,267.859 289.460,268.200 288.800 C 268.541 288.140,268.731 287.600,268.621 287.600 C 268.511 287.600,268.141 288.140,267.800 288.800 M70.456 290.000 C 70.456 290.330,70.611 290.960,70.800 291.400 C 71.017 291.904,71.144 291.978,71.144 291.600 C 71.144 291.270,70.989 290.640,70.800 290.200 C 70.583 289.696,70.456 289.622,70.456 290.000 M329.029 290.629 C 328.881 291.215,328.838 291.772,328.932 291.866 C 329.027 291.960,329.224 291.558,329.371 290.971 C 329.519 290.385,329.562 289.828,329.468 289.734 C 329.373 289.640,329.176 290.042,329.029 290.629 M134.430 293.400 C 134.924 294.280,135.500 295.180,135.710 295.400 C 136.309 296.028,134.939 293.494,134.196 292.600 C 133.830 292.160,133.935 292.520,134.430 293.400 M265.508 292.900 C 264.633 294.249,263.848 295.856,264.287 295.400 C 264.848 294.817,266.498 292.000,266.279 292.000 C 266.176 292.000,265.829 292.405,265.508 292.900 M137.449 298.100 C 141.716 304.008,148.382 311.060,152.800 314.342 C 154.521 315.620,154.512 315.603,152.600 313.968 C 148.476 310.441,141.660 303.273,139.030 299.700 C 137.533 297.665,136.223 296.000,136.120 296.000 C 136.016 296.000,136.614 296.945,137.449 298.100 M260.965 299.811 C 260.373 300.587,259.959 301.287,260.044 301.367 C 260.130 301.446,260.693 300.812,261.296 299.956 C 262.665 298.014,262.418 297.906,260.965 299.811 M256.671 305.007 C 253.889 308.059,253.235 309.223,255.833 306.500 C 257.370 304.889,259.753 301.995,259.534 302.007 C 259.460 302.011,258.172 303.361,256.671 305.007 M323.000 307.461 C 322.664 308.265,322.482 309.015,322.595 309.128 C 322.708 309.241,322.800 309.235,322.800 309.116 C 322.800 308.996,323.072 308.246,323.405 307.449 C 323.738 306.652,323.921 306.000,323.811 306.000 C 323.701 306.000,323.336 306.658,323.000 307.461 M77.228 308.600 C 77.228 308.820,77.486 309.450,77.800 310.000 C 78.114 310.550,78.372 310.820,78.372 310.600 C 78.372 310.380,78.114 309.750,77.800 309.200 C 77.486 308.650,77.228 308.380,77.228 308.600 M252.175 309.643 C 250.411 311.509,245.767 315.230,242.500 317.395 C 239.671 319.270,238.719 320.100,240.473 319.161 C 243.670 317.450,254.748 308.400,253.645 308.400 C 253.483 308.400,252.821 308.959,252.175 309.643 M79.487 313.500 C 79.841 314.445,81.197 316.673,81.199 316.312 C 81.200 315.942,79.567 312.800,79.372 312.800 C 79.291 312.800,79.343 313.115,79.487 313.500 M154.800 315.758 C 154.800 316.052,158.872 318.862,159.045 318.688 C 159.137 318.596,158.219 317.862,157.006 317.057 C 155.793 316.251,154.800 315.667,154.800 315.758 M82.400 319.000 C 83.126 320.320,83.902 321.580,84.125 321.800 C 84.348 322.020,83.941 321.120,83.221 319.800 C 82.501 318.480,81.725 317.220,81.496 317.000 C 81.267 316.780,81.674 317.680,82.400 319.000 M317.000 319.600 C 316.659 320.260,316.469 320.800,316.579 320.800 C 316.689 320.800,317.059 320.260,317.400 319.600 C 317.741 318.940,317.931 318.400,317.821 318.400 C 317.711 318.400,317.341 318.940,317.000 319.600 M160.800 319.779 C 160.800 319.889,161.340 320.259,162.000 320.600 C 162.660 320.941,163.200 321.131,163.200 321.021 C 163.200 320.911,162.660 320.541,162.000 320.200 C 161.340 319.859,160.800 319.669,160.800 319.779 M234.800 322.000 C 234.030 322.422,233.544 322.774,233.720 322.783 C 234.144 322.805,236.400 321.632,236.400 321.390 C 236.400 321.128,236.377 321.137,234.800 322.000 M315.414 322.235 C 315.041 322.804,314.827 323.361,314.939 323.472 C 315.050 323.583,315.429 323.118,315.781 322.437 C 316.559 320.933,316.344 320.815,315.414 322.235 M85.986 325.000 C 86.456 325.880,87.206 327.050,87.654 327.600 C 88.430 328.553,88.428 328.525,87.614 327.000 C 87.144 326.120,86.394 324.950,85.946 324.400 C 85.170 323.447,85.172 323.475,85.986 325.000 M170.000 324.510 C 170.316 324.842,175.291 326.802,175.769 326.783 C 176.006 326.774,175.162 326.335,173.892 325.808 C 171.294 324.728,169.702 324.198,170.000 324.510 M176.800 327.182 C 177.130 327.405,177.745 327.591,178.167 327.594 C 179.190 327.602,178.871 327.373,177.400 327.044 C 176.524 326.848,176.362 326.885,176.800 327.182 M222.000 327.200 C 221.176 327.464,221.141 327.526,221.800 327.554 C 222.240 327.573,222.870 327.413,223.200 327.200 C 223.901 326.747,223.414 326.747,222.000 327.200 M179.240 327.774 C 179.570 328.103,183.885 329.206,184.720 329.174 C 185.094 329.159,184.500 328.912,183.400 328.625 C 179.944 327.722,178.994 327.528,179.240 327.774 M89.616 330.563 C 91.395 333.040,92.106 333.479,90.457 331.082 C 89.760 330.069,88.978 329.110,88.720 328.950 C 88.461 328.791,88.865 329.516,89.616 330.563 M188.305 329.883 C 188.802 329.979,189.522 329.975,189.905 329.875 C 190.287 329.775,189.880 329.696,189.000 329.701 C 188.120 329.705,187.807 329.787,188.305 329.883 M210.305 329.883 C 210.802 329.979,211.522 329.975,211.905 329.875 C 212.287 329.775,211.880 329.696,211.000 329.701 C 210.120 329.705,209.807 329.787,210.305 329.883 M196.900 330.697 C 198.605 330.772,201.395 330.772,203.100 330.697 C 204.805 330.622,203.410 330.561,200.000 330.561 C 196.590 330.561,195.195 330.622,196.900 330.697 M308.344 333.100 C 307.193 334.489,306.706 335.200,306.904 335.200 C 307.014 335.200,307.586 334.570,308.173 333.800 C 309.263 332.371,309.395 331.832,308.344 333.100 M92.801 334.633 C 92.802 334.835,93.536 335.810,94.434 336.800 L 96.065 338.600 94.547 336.600 C 93.711 335.500,92.977 334.525,92.914 334.433 C 92.851 334.342,92.800 334.432,92.801 334.633 M303.989 338.700 C 302.601 340.405,301.839 341.472,302.297 341.070 C 303.211 340.268,306.955 335.600,306.684 335.600 C 306.590 335.600,305.378 336.995,303.989 338.700 M97.599 340.799 C 98.519 341.898,99.481 342.926,99.736 343.083 C 99.991 343.239,99.323 342.340,98.251 341.084 C 97.180 339.828,96.218 338.800,96.114 338.800 C 96.010 338.800,96.679 339.699,97.599 340.799 M298.600 344.800 C 297.517 345.900,296.803 346.782,297.015 346.759 C 297.391 346.720,301.080 342.800,300.741 342.800 C 300.647 342.800,299.683 343.700,298.600 344.800 M104.600 348.400 C 106.792 350.600,108.668 352.400,108.770 352.400 C 109.114 352.400,101.404 344.508,101.008 344.454 C 100.792 344.424,102.408 346.200,104.600 348.400 M295.178 348.700 L 293.800 350.200 295.300 348.822 C 296.696 347.538,296.984 347.200,296.678 347.200 C 296.612 347.200,295.937 347.875,295.178 348.700 M290.383 353.100 L 288.600 355.000 290.593 353.200 C 291.688 352.210,292.663 351.355,292.759 351.300 C 292.855 351.245,292.761 351.200,292.550 351.200 C 292.339 351.200,291.364 352.055,290.383 353.100 M112.565 355.700 C 113.895 356.965,115.136 358.000,115.322 358.000 C 115.509 358.000,115.063 357.518,114.331 356.928 C 113.599 356.339,112.358 355.304,111.573 354.628 C 110.789 353.953,111.235 354.435,112.565 355.700 M287.362 355.659 C 286.943 356.131,285.898 357.031,285.040 357.659 C 284.182 358.286,283.674 358.800,283.912 358.800 C 284.361 358.800,288.781 354.842,288.362 354.815 C 288.231 354.807,287.781 355.186,287.362 355.659 M116.000 358.549 C 116.000 358.662,117.125 359.588,118.500 360.607 C 119.875 361.627,120.370 361.894,119.600 361.201 C 117.897 359.669,116.000 358.271,116.000 358.549 M279.100 362.214 C 278.055 362.980,277.200 363.707,277.200 363.829 C 277.200 364.087,280.774 361.566,281.057 361.109 C 281.374 360.595,281.081 360.760,279.100 362.214 M125.069 365.232 C 125.566 365.833,128.000 367.364,128.000 367.076 C 128.000 366.983,127.235 366.402,126.300 365.785 C 125.365 365.168,124.811 364.920,125.069 365.232 M270.296 368.150 C 268.375 369.331,267.838 369.889,269.400 369.081 C 270.654 368.433,272.345 367.226,272.000 367.225 C 271.890 367.225,271.123 367.641,270.296 368.150 M131.600 369.564 C 132.150 370.014,132.780 370.383,133.000 370.385 C 133.428 370.388,132.705 369.834,131.400 369.160 C 130.869 368.885,130.936 369.021,131.600 369.564 M133.800 370.723 C 134.362 371.289,142.010 375.325,142.182 375.146 C 142.260 375.066,140.316 373.947,137.862 372.660 C 135.408 371.373,133.580 370.502,133.800 370.723 M143.000 375.556 C 143.220 375.777,144.120 376.257,145.000 376.621 C 147.090 377.487,146.513 376.901,144.305 375.915 C 143.367 375.496,142.780 375.335,143.000 375.556 M163.000 383.200 C 163.440 383.389,164.070 383.544,164.400 383.544 C 164.778 383.544,164.704 383.417,164.200 383.200 C 163.760 383.011,163.130 382.856,162.800 382.856 C 162.422 382.856,162.496 382.983,163.000 383.200 M233.000 384.000 C 232.496 384.217,232.422 384.344,232.800 384.344 C 233.130 384.344,233.760 384.189,234.200 384.000 C 234.704 383.783,234.778 383.656,234.400 383.656 C 234.070 383.656,233.440 383.811,233.000 384.000 M169.000 384.800 C 169.440 384.989,170.160 385.144,170.600 385.144 L 171.400 385.144 170.600 384.800 C 170.160 384.611,169.440 384.456,169.000 384.456 L 168.200 384.456 169.000 384.800 M229.800 384.800 C 229.296 385.017,229.222 385.144,229.600 385.144 C 229.930 385.144,230.560 384.989,231.000 384.800 C 231.504 384.583,231.578 384.456,231.200 384.456 C 230.870 384.456,230.240 384.611,229.800 384.800 M172.800 385.600 C 173.350 385.776,174.160 385.920,174.600 385.920 C 175.233 385.920,175.192 385.854,174.400 385.600 C 173.850 385.424,173.040 385.280,172.600 385.280 C 171.967 385.280,172.008 385.346,172.800 385.600 M225.800 385.600 C 224.711 385.877,224.693 385.907,225.600 385.925 C 226.150 385.935,226.960 385.789,227.400 385.600 C 228.386 385.176,227.466 385.176,225.800 385.600 M177.200 386.400 C 177.750 386.576,178.650 386.717,179.200 386.713 C 180.098 386.706,180.078 386.674,179.000 386.400 C 177.308 385.969,175.856 385.969,177.200 386.400 M221.200 386.400 C 219.843 386.686,219.837 386.695,221.000 386.707 C 221.660 386.715,222.650 386.576,223.200 386.400 C 224.512 385.980,223.196 385.980,221.200 386.400 M182.200 387.185 C 183.422 387.511,186.670 387.720,186.367 387.453 C 186.275 387.372,185.030 387.207,183.600 387.085 C 181.962 386.946,181.444 386.982,182.200 387.185 M215.400 387.200 L 213.800 387.486 215.200 387.496 C 215.970 387.501,217.140 387.368,217.800 387.200 C 219.428 386.786,217.713 386.786,215.400 387.200 M189.305 387.887 C 189.914 387.979,190.814 387.977,191.305 387.882 C 191.797 387.787,191.300 387.711,190.200 387.714 C 189.100 387.717,188.697 387.795,189.305 387.887 M200.400 388.000 L 192.200 388.225 200.000 388.278 C 204.290 388.306,208.700 388.190,209.800 388.018 C 212.132 387.655,212.908 387.657,200.400 388.000 " stroke="none" fill="#d37b4b" fill-rule="evenodd"></path></g></svg>