<?xml version="1.0" encoding="utf-8"?>
<!-- Generator: Adobe Illustrator 25.2.0, SVG Export Plug-In . SVG Version: 6.00 Build 0)  -->
<svg version="1.1" id="Layer_1" xmlns="http://www.w3.org/2000/svg" xmlns:xlink="http://www.w3.org/1999/xlink" x="0px" y="0px"
	 viewBox="0 0 864 864" style="enable-background:new 0 0 864 864;" xml:space="preserve">
<style type="text/css">
	.st0{fill:#83522B;stroke:#000001;stroke-width:0.1;stroke-miterlimit:10;}
	.st1{fill:#D6987B;stroke:#000001;stroke-width:0.1;stroke-miterlimit:10;}
	.st2{fill:#C2794D;stroke:#000001;stroke-width:0.1;stroke-miterlimit:10;}
	.st3{fill:#BBB9B2;stroke:#000001;stroke-width:0.1;stroke-miterlimit:10;}
	.st4{fill:#E5E3E1;stroke:#000001;stroke-width:0.1;stroke-miterlimit:10;}
	.st5{fill:#7B9B96;stroke:#000001;stroke-width:0.1;stroke-miterlimit:10;}
	.st6{fill:#868B2C;stroke:#000001;stroke-width:0.1;stroke-miterlimit:10;}
	.st7{fill:#ADC6C3;stroke:#000001;stroke-width:0.1;stroke-miterlimit:10;}
	.st8{fill:#C26639;stroke:#000001;stroke-width:0.1;stroke-miterlimit:10;}
</style>
<g>
	<g>
		<path class="st0" d="M52.2,496.6c4.9,10.7,6.5,22,5.9,33.8c-0.6,12-1.9,23.9-5,35.5c-0.4,1.6-0.4,3.4-0.1,5.1
			c0.2,1.1,1.4,1.7,2.6,1.4c0.8-0.2,1.6-0.6,2.4-1c4.4-2.4,9.2-3.9,14.2-4.7c4.3-0.7,8.6-1.5,12.9-2.2c5.1-0.8,5.4-1.4,5.3-6.2
			c-0.2-5.2-0.6-10.5,0-15.6c1.3-13.2,3.2-26.4,4.7-39.5c0.4-3,0.7-6.1,0.6-9.1c-0.2-3.8-1.9-5.4-5.8-5.7c-4.6-0.3-9.1-0.4-13.7-0.5
			c0,0.2,0,0.3,0,0.5c-3.9,0-7.8-0.2-11.8,0.1c-2.8,0.2-5.6,0.8-8.4,1.3c-0.8,0.2-1.7,0.5-2.5,0.8c-1.8,0.9-2.6,2.4-2,4.3
			C51.6,495.5,51.9,496,52.2,496.6z"/>
		<g>
			<path class="st1" d="M9.3,827.7c-3.8-16.8-6.2-33.9-7.7-51.1c-2.2-25.6,0.1-51,4.6-76.2c2.1-11.8,4.6-23.5,7.1-35.3
				c5.2-25.3,11.8-50.1,24.5-72.9c2.5-4.4,1.8-6.2-2.4-9.3c-1.6-1.1-3.3-2.1-4.9-3.2c-2.1-1.3-4.1-2.8-6.3-3.8c-2.9-1.4-6-2-9.1-2.9
				c-5-1.4-9.9-2.3-15-1.4V864h21.7c-3-8.6-6-17.2-9-25.8C11.4,834.8,10.1,831.3,9.3,827.7z"/>
			<path class="st1" d="M233.2,845.7c1-1.6,2-3.2,3-4.9c-4-7.8-7.2-16.1-9.6-24.8c-3.3-11.7-5-24-5.1-36.5c0-0.3,0-0.5,0-0.8
				c-0.5,0.5-1.2,0.9-1.8,1.2c-2.1,0.9-4.6,0.7-6.9-0.6c-1.7-1-3.2-2.3-4.5-4.2c-2.9-4-5.1-8.5-6.9-14c-1.8-5.7-2.9-11.8-3.4-18.6
				c-1-14.5,0.1-28.5,3.3-41.7c2.6-10.8,7-21.4,13.1-31.7c1.7-2.9,3.7-5.8,5.5-8.5c-5.4-11.9-11.1-23.6-17-35.2
				c-6.8-13.5-15.1-26-24.3-38c-4-5.3-8.9-9.6-14.6-13c-5.4-3.3-11.1-3.6-16.9-1.1c-2.4,1.1-4.8,2.3-6.9,3.8
				c-3.6,2.5-6.9,5.3-10.3,8.1c-3.4,2.8-0.2,5.4,1.4,8c2.3,3.6,4.1,7.8,5.9,11.7c3.7,7.9,6.9,16.1,9.7,24.4
				c11.5,34.6,16,74,11.8,110.2c-1.9,16.5-3.7,33-6.8,49.2c-3.3,17.2-8.2,33.9-14.7,50.1c-2,4.9-4.6,9.4-7.8,13.6
				c-2.9,3.8-5.9,7.7-8.8,11.5h81.8c5.8-1.8,11.7-3.4,17.1-6.2C225.2,854.9,229.8,850.9,233.2,845.7z"/>
		</g>
		<g>
			<path class="st2" d="M18.1,570.9c2.9,2.4,6.4,4.1,9.8,5.6c2.7,1.2,5.6,2.1,8.4,3.1c2.7,0.9,5.3,2.2,7.2-0.8
				c0.8-1.3,1.5-2.7,2-4.1c1.7-4.7,3.3-9.4,4.9-14.1c0.3-1,0.6-2.1,0.8-3.2c0.5-4.9-1.9-8.5-6.8-9.5c-2.1-0.5-4.3-0.6-6.4-0.5
				c-5.5,0.4-10.7,1.8-15.6,4.2c-2.7,1.3-5.2,3.1-7.4,5.2c-3.2,3-3.5,5.6-1.1,9.3C14.9,567.9,16.4,569.5,18.1,570.9z"/>
			<path class="st2" d="M96.9,566.4c1.8,1.2,3.9,2.1,5.9,2.6c7.3,1.9,14,4.9,19.8,9.6c2.9,2.3,6,2.3,9.1,0.3c3.1-2,6.2-4,9.3-6.1
				c4.7-3.1,5.7-7.5,4.6-12.6c-0.7-3.4-2.7-5.9-5.3-8c-5.7-4.6-12.1-7.8-19.2-9.4c-1.5-0.3-3-0.4-4.7-0.6c-1.4,0.3-2.9,0.4-4.3,0.8
				c-9.2,2.8-14.3,9.5-17.2,18.3C94.2,563.4,95.1,565.3,96.9,566.4z"/>
			<path class="st2" d="M149.4,786.8c2.5-12.9,4.4-25.8,5.5-38.9c0.9-10.9,2-21.7,2.3-32.6c0.5-16.9-1.3-33.7-4.9-50.1
				c-4.9-22.3-13-43.9-23-64.3c0,0,0-0.1,0-0.1c-2.2-4.5-4.1-9.8-7-13.8c-0.3-0.4-0.4-0.8-0.4-1.2c-8.3-8.4-18.5-14-30.4-17
				c-9.2-2.3-18.1-1.6-26.5,3.3c-7.8,4.6-14.9,10-19.8,17.7c-18.9,29.5-28.2,65.7-34.4,99.8c-4.5,24.6-6.1,49.8-4.8,74.8
				c1.2,23.8,2.8,50.3,10.3,73c3.1,9.5,7.4,18.5,13.1,26.5h11.2h75c8.3-8.7,14.7-18.7,19.6-29.7C141.7,819,146.2,803.1,149.4,786.8z
				"/>
		</g>
	</g>
	<g>
		<path class="st0" d="M640.6,498.2c3.1,5.5,6.2,11.1,9.2,16.6c5.3,9.7,9.2,19.9,11.7,30.6c2.5,10.3,2.5,20.7,0.9,31.1
			c-0.8,4.9-2,9.7-3.4,14.4c-3,9.9-7.9,18.8-14.4,26.8c-0.9,1.1-1.8,2.4-2.6,3.6c-0.4,0.5-0.6,1.1-0.8,1.7c-0.5,1.6,0.2,3,1.9,3.4
			c0.6,0.2,1.2,0.2,2,0.3c0.5-0.2,1.2-0.3,1.6-0.6c4.8-3.7,10.2-3.4,15.7-2.2c2.3,0.5,4.7,1.4,6.9,2.4c3.4,1.5,6.6,3.2,9.9,4.9
			c2.4,1.3,3.3,1.4,5.1-0.3c4.7-4.4,10.4-5.2,16.5-4.7c3.4,0.3,6.7,0.9,9.9,2.1c0.4,0.1,0.8,0.2,1.2,0.4c1.9,0.7,3.5,0.3,4.8-1.4
			c2.7-3.5,6.3-5.1,10.7-5.3c3.1-0.2,6.1,0,9.1,0.5c0.4,0.1,0.8,0.2,1.2,0.2c1.9,0.3,3.2-0.3,4.4-1.9c1.2-1.6,2.6-3,4.1-4.4
			c2-1.8,4.2-3,6.9-3.6c2.5-0.5,3.9-2.4,3.7-5c-0.1-0.7-0.5-1.4-0.9-2c-0.3-0.4-0.8-0.7-1.2-1c-3.2-1.8-5.5-4.5-7.9-7.2
			c-6.9-7.8-12.8-16.2-18.5-24.8c-13.1-19.8-24.5-40.6-35.5-61.6c-4.1-7.8-7.5-15.8-10.9-23.9c-0.6-1.4-1.1-2.7-1.8-4
			c-1.4-2.7-3.2-3.3-5.7-1.7c-7.8,5.1-16.6,7.2-25.5,8.8c-1.7,0.3-3.3,0.5-5,0.8c-0.7,0.1-1.5,0.3-2.2,0.5c-1.8,0.6-2.6,2.2-2,4
			C639.8,496.7,640.2,497.5,640.6,498.2z"/>
		<g>
			<path class="st3" d="M619.8,645.8c4.5-4.9,9.8-8.8,15.7-11.8c1.2-0.6,2.5-1.2,3.6-1.9c2.4-1.5,2.4-4.4,0-5.9
				c-1.3-0.8-2.8-1.1-4.2-1.1c-2,0.1-4,0.3-6,0.6c-2.7,0.4-5.4,1-8.1,1.5c-4.1,0.8-8.1,2-12,3.5
				C612.7,635.2,616.3,640.3,619.8,645.8z"/>
			<path class="st3" d="M822.6,642.2c-11.9-8.4-24.8-15.2-38.6-20.1c-7.4-2.6-15-4.2-22.7-5.4c-2.6-0.4-5.2-0.7-7.8-0.9
				c-1.2-0.1-2.5-0.1-3.8,0.2c-2.9,0.5-4.1,4.2-2,6.4c0.8,0.8,1.8,1.5,2.8,2c2.9,1.5,5.8,3,8.8,4.3c4.5,2,9.2,3.8,13.7,5.7
				c8.9,3.7,17.3,8.3,24.6,14.7c8.3,7.4,15.8,15.5,22.3,24.5c8,11.3,15,23.2,20.7,35.8c1.8,3.9,3.4,7.9,4.6,12.1
				c2.5,8.6,5.1,17.2,7,26c1.3,6.1,1.8,12.3,2.2,18.5c0.3,4.3,0.4,8.6,0.5,13c0.3,8.9-0.9,17.7-2.6,26.4c-1.7,8.9-4.3,17.6-6.9,26.3
				c-0.9,3-1.7,6.1-2.5,9.2c-0.3,1.1-0.3,2.3-0.1,3.4c0.4,2.4,2.1,3.7,4.4,3.6c1.1,0,2.3-0.3,3.4-0.6c2.5-0.7,4.6-2.1,6.6-3.6
				c2.4-1.8,4.6-3.7,6.7-5.7V683.3C852.8,667.4,839.1,653.7,822.6,642.2z"/>
			<path class="st3" d="M767.6,826.2c3.8-14.4,5.3-29,4.7-43.9c-0.5-12.3-1.9-24.6-3.8-36.8c-1.6-10.5-3.6-21-6.6-31.2
				c-7-24-18.1-45.8-34.3-64.9c-4.7-5.6-9.9-10.6-15.9-14.8c-2.3-1.6-4.6-2.9-7.2-3.9c-4.9-1.8-9.8-1.4-14.5,0.7c-2,0.9-4,2-5.8,3.3
				c-7.5,5.4-13.4,12.2-17,20.8c-1.6,3.8-3.3,7.5-5.1,11.2c-7.1,14.4-11.8,29.5-14.2,45.4c-1.6,10.7-2.3,21.4-1.8,32.2
				c0.4,10.1,0.9,20.2,2,30.3c1,8.4,2.5,16.7,4.1,25c1.4,7.2,3,14.2,5.3,21.1c3.4,9.9,7.5,19.5,12.7,28.6c3.2,5.5,7,10.5,11.4,14.9
				h67.7c3.7-3.9,6.8-8.4,9.3-13.5C762.6,842.7,765.4,834.6,767.6,826.2z"/>
		</g>
		<g>
			<path class="st4" d="M651.4,682c2.1-7.3,5.1-14.3,8.7-21c3.9-7.4,7.9-14.7,11.9-22c1.4-2.7,1.3-4.3-0.6-6.6
				c-1.8-2.1-4.2-3.2-6.8-3.8c-4.3-0.9-8.6-0.7-12.9,0.3c-8.5,2-15.9,6.1-22.6,11.6c-2.8,2.3-5.5,4.8-8,7.3c2.1,3.5,4.2,7.2,6.2,11
				l0.1,0.3c0.1,0.2,0.2,0.5,0.4,0.7c4.9,8.2,7.9,17,10.9,26.1c0.4,1.3,0.7,2.6,0.9,3.9c0.2,1.3,0,2.7-0.4,3.9
				c-0.7,1.9-2.3,3.3-4.2,3.8c-0.3,0.1-0.7,0.1-1,0.2c2.9,7.1,5.2,14.4,6.9,21.7c0.7,3,1.3,6.1,1.8,9.2c0.4-4.7,1-9.3,1.8-13.8
				C646.2,703.7,648.3,692.7,651.4,682z"/>
			<path class="st4" d="M842.4,825.3c4.7-13.7,6.9-27.8,7.1-42.3c0-1.9,0-3.8,0-5.7c0.3-26.6-5.5-51.9-16.9-75.9
				c-9.4-19.9-22.9-36.6-39.9-50.5c-3.1-2.5-6.3-5-9.5-7.3c-12.1-8.7-25.6-14.2-40-17.3c-6.2-1.4-12.5-1.4-18.9-0.2
				c-2.2,0.4-4,1.3-5.4,3c-1.3,1.6-1.3,2.8,0.1,4.1c14.4,12.7,25.7,27.8,34.9,44.6c11,20.1,18.2,41.5,22,64
				c3.1,18.9,4.3,37.9,3.2,57.1c-0.6,10.6-2.2,21-4.8,31.2c-2.3,9-6.2,17.2-11.9,24.6c-1.1,1.4-2.1,2.9-3.2,4.3
				c-1.3,1.6-2.3,3.3-3.2,5.1h58.2c0.1-0.1,0.2-0.1,0.3-0.2C827.9,854,837.1,841,842.4,825.3z"/>
			<path class="st4" d="M861.2,635.7c-17.3-10.2-35.6-17.8-55.1-22.5c-8-1.9-16-3.7-24.2-4.4c-4.3-0.4-8.6-0.4-13-0.5
				c-2.3,0-3.3,0.8-3.7,2.7c-0.4,1.8,0.6,4,2.4,4.7c1.1,0.4,2.2,0.7,3.4,0.9c3.7,0.6,7.2,1.6,10.6,3c11.3,4.5,22.5,9,33.1,14.9
				c6.4,3.5,12.4,7.5,18,12.3c11.4,9.5,21.9,19.8,31.3,31.2v-40.5C863.1,636.8,862.1,636.2,861.2,635.7z"/>
			<path class="st4" d="M652.4,816.8c-4.2-11.3-7.1-23-8.6-34.9c-0.5-4.1-1-8.3-1.4-12.4c-0.7,4.5-1.6,9.1-3,13.7
				c-3.5,11.3-7.4,20.3-12,28.1c-1.2,2.1-2.7,4.2-4.4,6.5c-3.8,5.1-8.3,9.8-13.3,14.2c-1.5,1.3-3.1,2.3-4.8,2.9
				c-2.2,0.8-4.4,0.5-6.2-0.7c0,0,0,0,0,0c-0.4,1.2-0.7,2.4-1.1,3.7c-0.7,2.1-1.4,4.2-2.1,6.3c1,1.7,2.1,3.5,3.2,5.2
				c3.7,5.8,8.2,10.6,13.4,14.8h61.2c-5.8-9.6-10.5-19.6-14.4-30.1C656.8,828.2,654.5,822.5,652.4,816.8z"/>
		</g>
	</g>
	<g>
		<path class="st5" d="M276,616.4c0.7-0.3,1.4-0.7,2-1.1c2.2-1.5,4.5-3.1,6.7-4.6c14.9-10.3,31.3-15.8,49.3-16.8
			c9.5-0.5,18.9-0.3,28.3,0.9c6.4,0.8,12.7,1.8,19,2.8c5.7,0.9,11.4,1.5,17.2,1.5c4.1,0,7.9-1,11.5-3.1c2.1-1.3,4.3-2.5,6.5-3.7
			c1.5-0.8,2.1-2.1,2.2-3.7c0.1-1.5-0.6-2.7-1.6-3.8c-3.4-3.5-7-6.8-11-9.7c-4-2.9-8-5.7-12.4-7.9c0,0,0,0-0.1,0
			c-1.5-0.5-3.2-1.2-5-2.3c-11-4.5-22.5-5.9-34.5-4.3c-11.2,1.5-21.9,4.4-32.1,9.2c-16.8,7.9-31.2,18.8-42.8,33.4
			c-2,2.5-3.6,5.1-5.4,7.7c-0.7,1-1.2,2.1-1.1,3.3C272.8,615.8,274.4,617,276,616.4z"/>
		<path class="st5" d="M571.9,607.8c-1.4-0.7-2.8-1.3-4.2-2c-0.3,0.3-0.5,0.6-0.8,0.9l-0.4,0.5c-0.2,0.2-0.4,0.5-0.6,0.8
			c-0.4,0.5-0.9,1.1-1.4,1.6c-1.6,1.8-3.6,3-5.3,4c-2.6,1.4-5.2,2.8-8.1,4.2c-2.3,1.2-4.7,2-7.2,2.3c-0.7,0.1-1.4,0.2-2.1,0.3
			l-0.3,0.1c-2.3,0.4-5.2,0.8-8.4,0.4c-1.6,0.6-3.9,1.3-6.5,1.6c-0.4,0-0.9,0.1-1.3,0.1c-1,0.1-2.1,0.2-3.2,0.3c-0.3,0-0.7,0-1,0
			c-0.7,0-1.5,0-2.4-0.2l-1.6-0.3c-4.5-0.8-9.2-1.7-13.8-3.6c-0.1,0-0.2-0.1-0.3-0.1c-0.8,0.2-1.5,0.1-1.9,0l-0.3,0
			c-0.7-0.1-1.4-0.2-2-0.3c-3.7-0.6-7.2-1.9-10.3-3.9c-0.1,0-0.1-0.1-0.2-0.1l-0.6-0.3c-1.5-0.6-3.2-1.4-4.8-2.5
			c-0.4-0.3-0.8-0.6-1.2-0.8c-0.3-0.2-0.6-0.5-1-0.7c-1-0.6-2.2-1.4-3.2-2.7c-0.1-0.1-0.1-0.1-0.2-0.2l-0.1-0.1
			c-0.1-0.1-0.3-0.3-0.4-0.4c-3.4,2.6-6.3,5.4-8.7,8.2c-0.9,1.1-1.3,1.6-1.6,2.2c-2.5,3.8-3,7.9-1.2,12.1c2.3,5.2,5.9,9.4,10.4,12.8
			c1,0.8,2.2,1.3,3.4,1.9c1.6,0.7,3.3,0.9,5.1,0.4c2.1-0.5,3.8-1.5,5.5-2.8c2.2-1.6,4.3-3.3,6.5-5c5.2-3.9,10.8-6.9,16.9-8.9
			c7-2.2,14.1-3.6,21.5-3.4c6.7,0.2,13.5,0.5,20.1,2.1c13.7,3.5,26.6,8.7,37.9,17.4c6.1,4.7,11.9,9.8,17.2,15.5
			c7.8,8.5,14.2,17.8,18.8,28.4c0.9,2.1,2,4.1,3.1,6.1c0.4,0.7,0.8,1.3,1.4,1.8c1.1,0.9,2.7,0.5,3.2-0.9c0.2-0.6,0.3-1.3,0.2-1.9
			c-0.1-1.1-0.4-2.1-0.7-3.2c-2.8-8.7-5.8-17.3-10.5-25.2c-0.2-0.4-0.4-0.8-0.6-1.2c-6.1-11.9-13.4-23-22.6-32.9
			C593.3,621,583.3,613.5,571.9,607.8z"/>
		<path class="st5" d="M594.6,839c4.1-13.2,6.9-26.7,7.1-40.7c0.1-11.5-0.6-23-2.1-34.5c-1.8-13.1-6-25.4-12.4-36.9
			c-6.4-11.6-14.1-22.2-24-31c-5.4-4.8-11.1-9.1-17.2-12.9c-5.7-3.5-11.8-6-18-8.3c-14.8-5.6-30.1-7.6-45.8-7c-0.5,0-1.1,0-1.6,0.1
			c-1.2,0.1-2,0.9-2.4,2c-0.4,1,0,1.9,0.8,2.7c0.5,0.5,1,0.9,1.5,1.3c1.2,0.9,2.5,1.8,3.7,2.7c6.3,4.5,12.2,9.4,17.4,15.2
			c7.5,8.4,12.7,18.1,16.1,28.8c1.2,3.7,2.3,7.5,3.2,11.3c3.2,12.5,5.1,25.2,5,38.1c-0.2,18.2-2.2,36.2-7.3,53.8
			c-3.5,12.1-6.8,24.3-11.3,36.1c-0.6,1.5-1.1,2.9-1.7,4.4h78.1c1.3-2.2,2.6-4.5,3.8-6.9C590.3,851.3,592.7,845.2,594.6,839z"/>
		<path class="st5" d="M320.3,797.1c0.6-3.3,1.2-6.6,1.8-9.9c2-10.4,4.8-20.5,8.4-30.4c4.5-12.1,9.6-23.7,16.6-34.6
			c8.1-12.6,17.7-24,29.2-33.6c7.6-6.4,15.7-12,24.8-16.1c2-0.9,3.9-2,5.8-2.9c1-0.5,1.5-1.2,1.7-2.2c0.3-1.3,0-2.4-0.8-3.3
			c-1.5-1.6-2.9-3.2-4.6-4.6c-6.1-5-12.7-9.2-19.8-12.5c-15.5-7.1-31.7-9.9-48.6-7.7c-12.8,1.6-25.1,5.5-36.8,10.9
			c-10.2,4.8-19.6,10.8-27.8,18.6c-9.9,9.4-18.3,20-25.3,31.8c-7.6,12.8-12.8,26.4-15.5,41c-2.4,13.4-3,27-3,40.6
			c0.1,12,1.6,23.8,4.9,35.4c4.7,16.7,12.4,32,23.2,45.6c0.2,0.3,0.5,0.6,0.7,0.9h64c-1.3-5.7-2-11.6-2.3-17.5
			C316.4,829.9,317.4,813.4,320.3,797.1z"/>
	</g>
	<g>
		<path class="st6" d="M424.6,556.9c0.2-0.4,0.3-0.8,0.5-1.2c0.6-1.3,1.1-2.6,1.5-3.9c0.4-1.2,0.8-2.3,1.2-3.5
			c0.1-0.5,0.3-0.9,0.3-1.4c0.5-2.8,1-5.6,1.1-8.4c0.1-2,0-4.1-0.4-6.1c-0.2-1.4-0.5-2.7-0.8-4.1c-0.1-0.4-0.2-0.7-0.5-1
			c-0.2-0.2-0.3-0.4-0.2-0.6c0.2-1.9,0.2-3.8,0.1-5.8c-0.2-2.7-0.9-5.3-1.9-7.8c-1.6-4.1-3.7-8-6.2-11.7c-1.5-2.2-3.2-4.2-5.2-5.9
			c-2.3-1.9-4.6-3.9-6.9-5.8c-2.2-1.8-4.6-3.4-7-4.9c-4.6-2.9-9.4-5.4-14.3-7.8c-1.5-0.8-3.2-1.3-4.8-1.8c-2.4-0.8-4.7-1.4-7.1-2.1
			c-1.9-0.5-3.7-1.1-5.6-1.6c-2.3-0.7-4.7-1-7.1-1.3c-3.7-0.5-7.3-1.1-11-1.5c-2.5-0.3-5-0.9-7.4-1.7c-0.5-0.2-1-0.4-1.5-0.6
			c-1.1-0.5-2.2-1.1-3.3-1.7c-0.3-0.1-0.5-0.2-0.8-0.3c-0.6-0.1-1.2,0.2-1.4,0.7c-0.3,0.5-0.2,1.2,0.3,1.6c0.2,0.2,0.5,0.4,0.7,0.6
			c0.2,0.1,0.3,0.3,0.4,0.5c0.4,1.1,0.8,2.2,1.2,3.4c0.2,0.6,0.2,1.3,0.1,1.9c-0.3,1.3-0.5,2.7-1.1,3.9c-0.1,0.2-0.2,0.4-0.3,0.6
			c-0.5,1-1,1.9-1.5,2.9c-0.6,1.2-1.3,2.3-2.1,3.4c-0.4,0.6-0.7,1.3-0.8,2.1c0,0.1,0,0.2-0.1,0.3c-0.4,1-0.7,2.1-1.1,3.1
			c-0.4,0.9-0.4,1.8-0.5,2.8c0,0.6-0.1,1.2-0.4,1.8c-0.4,0.8-0.4,1.6-0.3,2.5c0.1,0.9,0.3,1.9,0.5,2.8c0.2,1.1,0.4,2.1,0.4,3.2
			c0,1.4,0.5,2.4,1.6,3.3c0.7,0.6,1.2,1.5,1.6,2.3c0.9,1.9,1.5,3.8,1.8,5.9c0.3,2,1.3,3.6,3.1,4.7c1.3,0.8,2.5,1.8,3.5,2.9
			c1.3,1.4,2.4,2.9,3.7,4.3c0.2,0.2,0.3,0.4,0.4,0.6c0.1,0.2,0.1,0.4,0.2,0.7c0.4,2.1,1.1,4,2.1,5.8c0.6,1.3,1.4,2.5,2.2,3.6
			c1.1,1.5,2.2,2.9,3.5,4.3c1.7,1.8,3.6,3.3,5.7,4.6c1,0.7,2.1,1.3,3.1,2c1.5,1,3,1.8,4.7,2.5c1.9,0.8,3.7,1.6,5.5,2.6
			c1.2,0.6,2.4,0.9,3.6,1.3c1.2,0.4,2.3,0.8,3.4,1.4c1,0.5,2,1,2.9,1.6c0.6,0.4,1.2,0.9,1.7,1.3c0.2,0.2,0.4,0.4,0.5,0.6
			c0.6,0.8,1,1,2,0.8c0.1,0,0.1,0,0.1,0c0.7,0.7,1.4,1.5,2.1,2.1c1.5,1.4,3.3,2.2,5.2,2.8c1.3,0.4,2.6,0.7,4,0.7
			c2.2,0.1,4.3,0.5,6.3,1.2c1.6,0.5,3.3,0.9,4.9,1.4c2,0.6,3.7,1.6,5.2,3.1c0.6,0.6,1.2,1.2,1.8,1.7c0.1,0.1,0.3,0.2,0.5,0.3
			c0-0.3-0.1-0.6-0.1-0.8c-0.5-3.1-1.3-6.2-2.2-9.3c-1.9-6.2-4-12.3-6.9-18c-4.8-9.4-10.2-18.5-16.8-26.7c-2.8-3.5-5.8-7-9.1-10.1
			c-2.9-2.7-5.9-5.3-9.1-7.7c-3.6-2.7-7.2-5.4-10.6-8.3c-0.9-0.8-1.8-1.5-2.7-2.3c-0.1-0.1-0.3-0.2-0.4-0.4
			c-0.1-0.2-0.1-0.3,0.1-0.5c0.2-0.1,0.3-0.1,0.5,0c0.8,0.6,1.7,1.2,2.5,1.8c1.8,1.2,3.5,2.5,5.2,3.8c1.5,1.2,3.1,2.3,4.6,3.4
			c3.2,2.3,6.2,4.8,9.2,7.4c6.1,5.3,11.3,11.4,16,18c2.8,4.1,5.4,8.3,7.7,12.6c2.2,4,4.3,8,6.1,12.1c2.7,6.3,4.9,12.8,6.4,19.5
			c0.4,1.9,0.7,3.7,0.8,5.6c0,0,0,0.1,0.1,0.2c0.1-0.1,0.2-0.1,0.3-0.2c1.3-1.2,2.3-2.7,3.2-4.2c1.5-2.6,2.1-5.4,2.3-8.3
			c0-0.7,0.1-1.3,0.2-2c0-0.1,0-0.1,0-0.2C425.7,557.7,425.5,557.4,424.6,556.9z"/>
		<path class="st0" d="M421.3,592.6c-1.2,1.4-2.5,2.7-4,3.8c-3.4,2.4-7,4.3-11,5.7c-2.8,0.9-5.6,1.9-8.4,2.8
			c-2.6,0.8-4.6,2.3-6.5,4.8c-0.2,0.3-0.6,0.9-1,1.6c-2.4,4.5-4.2,9.3-5.3,14.3c-1.1,5,0.4,9.5,4,13.1c1.9,1.9,3.9,3.7,6.1,5.4
			c5.3,4,10.2,8.5,14.6,13.4c1.6,1.8,3.2,3.6,4.8,5.4c1.7,1.9,3.7,2.5,6.2,1.5c1.1-0.5,2.2-0.8,3.4-1.3c4.6-1.9,9.4-2.4,14.4-1.8
			c3.7,0.5,7.3,1.4,10.8,2.5c2.4,0.8,4.8,1.5,7.2,2c2.9,0.7,5.4-0.3,7.2-2.7c0.6-0.8,1.2-1.6,1.7-2.4c2-3,3.9-6,5.9-9
			c2-2.9,1.2-5.4-1-7.1c-2.3-1.8-4.3-4-6.4-6.1c-2.7-2.5-4.5-5.6-5.9-8.9c-0.6-1.5-1.3-3-1.9-4.5c-3-8-2-15.5,2.5-22.7
			c5.9-9.5,13.2-17.8,20.9-25.9c5.9-6.1,12-12,18-18c1.2-1.2,2.5-2.4,3.6-3.7c1.7-2,1.5-3.9-0.3-5.8c-0.6-0.6-1.3-1.1-2-1.7
			c-1.2-0.9-2.4-1.8-3.6-2.8c-7.3-6.3-14.4-13-21-20c-1.1-1.2-2.3-2.3-3.6-3.3c-1.6-1.2-2.9-1.2-4.5,0.1c-0.9,0.7-1.8,1.6-2.5,2.6
			c-2.3,3.4-4.7,6.8-6.8,10.3c-4.6,7.6-9.2,15.3-13.7,23c-4.4,7.4-8.7,14.8-13.1,22.2C427.6,584,424.8,588.6,421.3,592.6z"/>
		<g>
			<path class="st7" d="M269.4,661.9c21.7-19.7,47.3-29,76.6-28.6c3,0,6.1,0.3,9.1,0.2c3.6-0.1,7.2-0.3,10.7-0.7
				c3-0.3,5.9-1.4,8.7-2.7c2.2-1,4.1-2.5,5.6-4.3c2.4-2.8,5.4-10.8,5.6-14.4c0.1-2-0.6-3.5-2.4-4.7c-1.1-0.7-2.3-1.2-3.6-1.5
				c-3.6-0.7-7.2-1.5-10.9-2.1c-15.7-2.9-31.4-2.7-47,0.2c-24.2,4.5-45.9,14.4-65.4,29.4c-11,8.5-21.1,17.9-29.5,28.9
				c-2.7,4.1-5.6,8-8.1,12.2c-5.7,9.6-10.1,19.7-12.7,30.6c-3.2,13.3-4.1,26.8-3.2,40.5c0.4,6,1.4,11.9,3.2,17.6
				c1.4,4.6,3.4,8.9,6.3,12.8c0.9,1.3,2,2.3,3.3,3.1c2.5,1.4,4.5,0.5,5.1-2.3c0-0.2,0-0.4,0.1-0.6c0.9-5.7,1.9-11.4,2.8-17.1
				c2.6-16.5,6.6-32.6,12.7-48.1C243.7,691.6,254.5,675.3,269.4,661.9z"/>
			<path class="st7" d="M637.8,722.7c-4.3-18.6-12.2-35.5-22.9-51.2c-6.3-9.3-13.8-17.6-22.8-24.5c-2.8-1.8-5.6-3.7-8.5-5.5
				c-9.8-6.2-20.5-10.5-31.9-12.8c-10.5-2.2-20.9-2.1-31.4,0c-3.6,0.7-7.2,1.7-10.6,3.2c-8.5,3.8-16.3,8.7-23,15.2
				c-3.2,3.1-5.9,6.7-7.7,10.8c-1.1,2.7-0.7,4.3,1.8,5.8c0.8,0.5,1.8,0.8,2.7,0.9c3.1,0.3,6.3,0.5,9.4,0.5c9,0.1,18,0.1,27,1.8
				c10.5,2,20.3,5.7,29.2,11.6c7.1,4.7,13.5,10.2,19.9,15.8c7.3,6.4,13.2,14.1,18.2,22.5c8.4,14.2,14,29.4,16.1,45.8
				c0.1,0.4,0.1,0.9,0.2,1.3c3.2,21.8,2.9,43.6-2.3,65.1c-0.2,0.6-0.3,1.3-0.3,1.9c-0.1,2.1,1.4,3.4,3.4,2.7
				c1.3-0.5,2.5-1.3,3.6-2.2c4.7-4,9-8.5,12.7-13.5c1.5-2,2.9-4.1,4.2-6.2c5.1-8.5,8.7-17.7,11.7-27.2c2.7-8.7,3.6-17.6,4.2-26.7
				C641.4,745.9,640.5,734.3,637.8,722.7z"/>
			<path class="st7" d="M516.4,803.4c3.6-19.5,4-39.1,1.6-58.8c-1.4-11.1-4.5-21.7-8.9-32c-4.6-10.9-11.4-20.2-20.2-28.1
				c-7.6-6.8-16.6-10.9-26.3-14c-8.5-2.7-17.2-3.7-26.1-2.7c-4.3,0.5-8.6,1.2-12.8,2.4c-12.3,3.4-23.5,9.2-33.8,16.5
				c-10.4,7.4-18.8,16.8-26.5,26.4c-7.2,9.7-13.2,19.8-18,30.5c-7.1,16-12.6,32.6-17.1,49.6c-3.5,13.4-5.4,27.1-5.9,40.9
				c-0.4,10,0.2,20,2.2,29.8H496c4.2-9.5,8-19.1,11.5-28.9C511.1,824.7,514.4,814.2,516.4,803.4z"/>
		</g>
		<path class="st6" d="M479.3,602.4c0.9-0.4,1.7-0.7,2.6-1.1c4.7-2.1,9.5-3.9,14.4-5.3c3.7-1.1,7.2-2.3,10.7-3.8
			c3.1-1.3,6.3-2.4,9.5-3.4c4.8-1.5,9.6-2.9,14.5-4.3c6.3-1.8,12.7-3.1,19.1-4c3.8-0.6,7.7-1.2,11.6-1.4c2.6-0.1,5.2-0.2,7.9-0.2
			c0.2,0,0.4,0,0.5,0.1c0.1,0.1,0.3,0.2,0.3,0.3c0,0.1-0.1,0.4-0.2,0.4c-0.3,0.1-0.6,0.2-0.9,0.2c-2,0.2-4,0.4-5.9,0.5
			c-7.8,0.3-15.4,1.4-23,2.8c-4.6,0.9-9.1,2.1-13.5,3.5c-2.3,0.8-4.7,1.4-7.1,2.2c-3.3,1.1-6.6,2.2-9.9,3.3
			c-1.6,0.6-3.2,1.3-4.8,1.9c-3.6,1.3-7.3,2.6-11,3.8c-2.8,0.9-5.5,1.9-8.2,2.9c-1.8,0.7-3.6,1.5-5.4,2.3c-0.4,0.2-0.8,0.4-1.3,0.7
			c0.1,0.1,0.1,0.2,0.2,0.3c0.5,0.5,1.1,1,1.6,1.5c0.1,0.1,0.3,0.2,0.4,0.4c0.6,0.9,1.5,1.4,2.4,2c0.7,0.5,1.4,1.1,2.2,1.6
			c1.4,1,3,1.6,4.6,2.3c0.3,0.1,0.6,0.3,0.9,0.4c2.6,1.7,5.5,2.8,8.6,3.3c0.7,0.1,1.4,0.2,2.1,0.3c0.2,0,0.4,0.1,0.7,0
			c1-0.3,1.9,0,2.7,0.4c4.7,1.9,9.6,2.7,14.5,3.6c0.8,0.1,1.6,0.1,2.3,0.1c1.5-0.1,2.9-0.2,4.4-0.4c2-0.2,3.9-0.7,5.8-1.5
			c0.3-0.1,0.7-0.2,1.1-0.1c2.6,0.4,5.1,0.2,7.6-0.3c0.9-0.1,1.7-0.3,2.6-0.4c2-0.3,4-0.9,5.8-1.8c2.7-1.4,5.3-2.7,7.9-4.2
			c1.5-0.8,3-1.7,4.2-3c0.7-0.7,1.3-1.5,1.9-2.3c0.7-0.9,1.4-1.7,2.2-2.5c2.5-2.8,5.2-5.4,7.9-8c2.2-2.1,4.4-4.3,6.7-6.4
			c2.3-2,4.7-3.9,7.2-5.5c1.6-1.1,3.1-2.2,4.4-3.6c2.6-2.8,5.5-5.1,8.5-7.3c1-0.7,2-1.5,3-2.2c0.2-0.2,0.4-0.4,0.6-0.6
			c0.3-0.5,0.3-1.1,0-1.5c-0.3-0.5-0.8-0.6-1.4-0.5c-0.2,0-0.4,0.1-0.5,0.2c-0.7,0.6-1.6,0.8-2.5,0.9c-5.3,0.9-10.6,0.9-15.8-0.6
			c-1.7-0.5-3.2-1.2-4.7-2c-2.8-1.6-5.7-2.9-8.7-3.8c-0.5-0.1-0.8-0.4-0.9-0.9c-0.2-0.7-0.8-1.3-1.4-1.7c-0.8-0.6-1.7-1.2-2.5-1.7
			c-2.4-1.7-5.2-2.5-8.1-3.2c-2.4-0.5-4.8-1.1-7.3-1.3c-0.3,0-0.5-0.1-0.8-0.3c-0.3-0.2-0.7-0.4-1.1-0.5c-0.6-0.2-1.2-0.3-1.7-0.3
			c-2.2-0.1-4.4-0.3-6.7-0.1c-1.8,0.1-3.6,0.7-5.4,1.2c-3.5,1-7,2.2-10.3,3.6c-1.9,0.8-3.6,1.8-5.4,2.8c-1.7,1-3.4,2.1-5,3.2
			c-5,3.3-9.8,6.9-14.2,10.9c-3.3,3-6.4,6.3-9,10c-1.8,2.5-3.7,5-5.5,7.6c-0.8,1.2-1.5,2.4-1.9,3.8c-0.2,0.5-0.5,1.1-0.8,1.6
			c-0.6,0.9-1.1,1.9-1.6,2.9c-0.3,0.6-0.7,1.1-1.1,1.7c-0.2,0.2-0.4,0.5-0.5,0.7C479.2,602.4,479.2,602.4,479.3,602.4z"/>
	</g>
	<g>
		<path class="st8" d="M753.5,116.8c-2.2-11.7-5.3-23.3-9.4-34.6C738.6,66.1,730,51.1,718.7,38C706.6,23.7,689.8,13.5,671,9.1
			c-23.4-5.1-44.2,0-61.2,16.4c-15.6,14.4-25.3,33.6-27.3,54.2c-0.1,0.6-0.3,1.2-0.4,1.7c-1.3,0.5-2.5,0.9-3.8,1.3
			c-14.5,4.5-28.6,10.1-42.3,16.6c-10.1,4.9-20,9.9-30.5,14.3c-17.4,7.5-36.2,11.5-55.3,11.8c-14.7,0.4-28.9-4.8-39.5-14.5
			c-5.7-5-10.7-10.8-14.6-17.2c-1.8-3-4-5.7-6.5-8.2c-1.4-1.8-4-2.5-6.2-1.7c-2.3,1-3.7,3.2-3.5,5.6c-0.1,2.1,0.2,4.3,0.9,6.3
			c1.6,3.7,3.6,7.2,5.9,10.5c8.6,11,20.7,19.2,34.4,23.5c15.1,4.9,31.2,6.1,47,3.7c23.2-3.1,44.4-11.8,64.9-22.1
			c8.8-4.4,17.7-8.4,27-12.2c7.1-3,14.6-5.3,22.4-8.1l0.9,4.2c2.1,14.4,8.7,27.8,19,38.5c7.4,8.4,17.6,14.3,29,16.5
			c11.3,2.5,23.2-1.1,30.8-9.4c8.3-8,11-19.9,6.9-30.4c-4.1-13.4-14.9-24.1-28.8-28.6c-13.3-4.7-27.6-6-41.6-3.7
			c-1.7,0.3-3.4,0.4-5.9,0.7c0.2-3.2,0.6-6.3,1.2-9.5c4.4-15.8,13.6-30,26.4-40.9c7.8-6.5,17.5-10.5,27.8-11.6
			c12.7-1.3,25.6,1.1,36.7,7.1c15.2,7.8,27.8,19.6,36.5,33.8c13.2,20.6,19.7,43.4,23.5,66.9c1.9,15.1,2.5,30.3,1.7,45.5
			c-2.1,39.8-9.1,78.2-21.4,116.3c-4.7,14.5-10,28.9-16.8,42.6c-5,10.1-11.4,23-22,28.9c-4,2.2-8.7,2.8-12.9,0.7
			c-4.5-2.2-8.9-6.2-12.2-9.8c-4.7-5-8.1-10.9-10.9-17c-0.3-0.7-2.3-4-2-4.5c23.7-42.5,39.3-97.9,39.3-135.3
			c0-26.4-8.8-40.9-28.1-40.9c-34.2,0-57.6,39.6-57.6,98.6c0,38.3,9.1,70.4,24.9,91.7c-16.8,24-34.2,36.2-50.3,36.2
			c-17.3,0-31.2-21.9-37.3-57.7c29.8-42.5,58.3-112.1,58.3-153c0-21.9-10.5-34.8-28.8-34.8c-41,0-68.5,51.9-68.5,126.6
			c0,30.2,4.5,56.6,12.6,77.5c-16.8,19.1-30.7,27.2-40.1,27.2c-10.5,0-15.6-15.5-15.6-42.8c0-22.9,3.4-50.9,6.8-74.1
			c1.4-9.7-7.1-17.1-18.3-17.1c-11.9,0-17.6,5.5-19,17.7c-1.7,9.3-26.8,111.5-60,111.5c-8.1,0-12.2-13.9-12.2-33.2
			c0-48,23.7-104.1,46.1-104.1c11.9,0,15.9,12.9,15.9,17.7c0,2.6,2,4.5,5.1,4.5c2.7,0,4.7-1.9,4.7-4.5c0-4.2-1.7-29.3-31.2-29.3
			c-31.6,0-58.1,26.9-68.8,65c-7.9,10.1-25.7,18.8-71.2,18.8c-3.1,0-2.7,10,0.3,10c12.2,0,29.5,59.9,29.5,104.4
			c0,26.1-5.8,39.3-14.9,39.3c-11.2,0-20.3-38.3-20.3-92.8c0-31.6,2.7-64.8,6.8-95c34.9-21.3,57.3-68.9,57.3-98.6
			c0-18-7.8-29-21.4-29c-33.6,0-60.2,51.9-70.9,126.6c-0.2,2.5-0.6,5-0.9,7.4l-10.9,7.6c-12.7,9.2-25.1,18.5-37.3,27.8
			c-12.2,9.3-23.6,18.8-34.1,28.3c-7.8,7.4-14.3,16-19.4,25.8c-5.1,9.8-8.6,19.7-10.4,29.8c-1.5,9.5-1.7,18.5-0.7,27.2
			c1.1,8.6,3.5,16.3,7.5,23.1c1.2,2.4,2.6,4.5,4.1,6.2c1.5,1.8,3.2,3.6,5,5.3c1.2,1.2,2.3,2.2,3.4,3.1c1.1,0.9,2.3,1.9,3.8,3.1
			c3.9,2.7,7.5,3.5,10.8,2.4c3.3-1,5.6-2.7,7-4.9c1.4-2.2,1.5-4.5,0.5-6.9c-1.1-2.4-4-3.6-8.8-3.6c-3.3-0.9-6-1.6-7.9-2.2
			c-2-0.6-3.7-1.6-5.2-3.1c-5.7-6.5-9-14.2-9.9-22.9c-0.9-8.8-0.6-17.1,0.9-25.2c1.5-9.2,4.5-18.2,9-26.9
			c4.5-8.8,10.4-16.4,17.6-22.9c9.9-9.5,21-18.9,33.2-28.3c12.2-9.3,24.5-18.5,36.8-27.4l3.4-2.3c-1.5,16.9-2.5,34.5-2.5,53
			c0,80.2,18.3,126.6,52.9,126.6c17.3,0,27.5-19.7,27.5-50.9c0-36.4-10.9-84.4-26.4-104.7c25.7-1.2,41.9-5.8,52.5-12.5
			c-1.1,7-1.7,14.3-1.7,21.8c0,36.4,15.9,57.7,42.7,57.7c28.5,0,47.5-37.1,59.3-70.6c0,51.5,15.3,75.7,45.8,75.7
			c14.6,0,30.1-10.2,48.2-29c13.2,27.1,33.5,42.8,58.2,42.8c19.2,0,40-14,58.5-39.4c2.2,2.3,4.5,4.4,7,6.4c2.9,2.3,5.9,4.5,8.9,6.7
			c2.8,2,5.5,4.2,8.7,5.6c4.2,1.8,8.7,2.6,13.3,2.9c14.6,0.8,26.3-9.4,34.4-19.7c10.5-13.4,17.6-29.1,23.6-44.6
			c3.7-9.7,7-19.6,9.8-29.5c10.5-36.3,15.6-73.9,16.6-111.6c0.1-5.1,0.2-10.2,0.2-15.3C756.7,139.3,755.6,128,753.5,116.8z
			 M609.6,86.2c9.7-0.5,19.4,1,28.4,4.3c12.3,4.2,21.2,14.3,23.2,26.5l0,1c1.4,9.8-4.5,15.8-14.9,15.1c-7.1-0.5-14-2.7-20-6.5
			c-13.5-7.8-24-19.6-29.9-33.5c-0.3-0.9-0.6-1.9-0.8-2.8c-0.2-0.8-0.3-1.7-0.4-2.5C600.3,87.2,604.9,86.3,609.6,86.2z M295.2,143.1
			c4.7,0,7.8,4.8,7.8,15.5c0,23.5-16.6,65.1-44.4,87.3C267.4,187.9,282.3,143.1,295.2,143.1z M535.6,272.3
			c0-64.1,18-129.2,37.6-129.2c8.1,0,12.2,7.4,12.2,23.8c0,33.8-22.7,95-48.5,136.6C536.3,293.9,535.6,283.6,535.6,272.3z
			 M635.6,250.1c0-47,12.9-87.3,28.1-87.3c7.5,0,12.2,9.7,12.2,29.3c0,31.3-13.2,80.2-32.6,120.5
			C638.4,295.2,635.6,273.6,635.6,250.1z"/>
		<g>
			<path class="st0" d="M307.7,404.3c0-0.8,0.7-1.5,1.5-1.5h5c0.8,0,1.5,0.7,1.5,1.5v50.5c0,0.8-0.7,1.5-1.5,1.5h-5
				c-0.8,0-1.5-0.7-1.5-1.5V404.3z M327,448.6c0.7-1,1.3-2.1,2-3.1c0.7-1,1.8-1.3,2.6-0.6c0.5,0.4,6.3,5.3,12.2,5.3
				c5.3,0,8.6-3.2,8.6-7.1c0-4.6-4-7.5-11.5-10.6c-7.8-3.3-13.9-7.3-13.9-16.2c0-6,4.6-14.1,16.7-14.1c7.6,0,13.4,4,14.1,4.5
				c0.6,0.4,1.2,1.5,0.5,2.6c-0.6,0.9-1.3,2-1.9,2.9c-0.6,1-1.6,1.5-2.7,0.8c-0.5-0.3-5.9-3.8-10.3-3.8c-6.4,0-8.6,4-8.6,6.9
				c0,4.4,3.4,7,9.7,9.6c8.9,3.6,16.4,7.8,16.4,17.1c0,7.9-7.1,14.4-17,14.4c-9.3,0-15.2-4.9-16.4-6
				C326.8,450.4,326.3,449.9,327,448.6z"/>
			<path class="st0" d="M388.2,404.3c0-0.8,0.7-1.5,1.5-1.5h5c0.8,0,1.5,0.7,1.5,1.5v50.5c0,0.8-0.7,1.5-1.5,1.5h-5
				c-0.8,0-1.5-0.7-1.5-1.5V404.3z M411,403.5c0-0.8,0.7-1.4,1.5-1.4h1.9l33.1,38.3h0.1v-36.1c0-0.8,0.6-1.5,1.5-1.5h4.9
				c0.8,0,1.5,0.7,1.5,1.5v51.4c0,0.8-0.7,1.4-1.5,1.4h-2l-33.1-39.4h-0.1v37.2c0,0.8-0.6,1.5-1.5,1.5h-4.8c-0.8,0-1.5-0.7-1.5-1.5
				V403.5z"/>
			<path class="st0" d="M494.3,410.1h-12.4c-0.8,0-1.5-0.7-1.5-1.5v-4.3c0-0.8,0.6-1.5,1.5-1.5h32.8c0.8,0,1.5,0.7,1.5,1.5v4.3
				c0,0.8-0.6,1.5-1.5,1.5h-12.4v44.8c0,0.8-0.7,1.5-1.5,1.5h-5c-0.8,0-1.5-0.7-1.5-1.5V410.1z M524.3,404.3c0-0.8,0.7-1.5,1.5-1.5
				h5c0.8,0,1.5,0.7,1.5,1.5v21.3h27.9v-21.3c0-0.8,0.6-1.5,1.5-1.5h5c0.8,0,1.5,0.7,1.5,1.5v50.5c0,0.8-0.7,1.5-1.5,1.5h-5
				c-0.8,0-1.5-0.7-1.5-1.5v-22.1h-27.9v22.1c0,0.8-0.6,1.5-1.5,1.5h-5c-0.8,0-1.5-0.7-1.5-1.5V404.3z M583,404.3
				c0-0.8,0.6-1.5,1.5-1.5h30.5c0.8,0,1.5,0.7,1.5,1.5v4.3c0,0.8-0.6,1.5-1.5,1.5h-24.1v15.6h20.4c0.8,0,1.5,0.7,1.5,1.5v4.3
				c0,0.8-0.7,1.5-1.5,1.5h-20.4v16.4h24.1c0.8,0,1.5,0.7,1.5,1.5v4.2c0,0.8-0.6,1.5-1.5,1.5h-30.5c-0.8,0-1.5-0.7-1.5-1.5V404.3z"
				/>
			<path class="st0" d="M637.5,454.3L661,403c0.2-0.5,0.9-0.8,1.3-0.8h0.8c0.4,0,1.1,0.4,1.3,0.8l23.3,51.4c0.5,1-0.2,2-1.3,2h-4.8
				c-0.9,0-1.5-0.5-1.8-1.1l-4.7-10.5h-25c-1.5,3.5-3.1,6.9-4.7,10.5c-0.2,0.5-0.8,1.1-1.8,1.1h-4.8
				C637.7,456.3,637.1,455.3,637.5,454.3z M672.1,438.2l-9.4-20.9h-0.4l-9.3,20.9H672.1z M695.2,404.3c0-0.8,0.7-1.5,1.5-1.5h5
				c0.8,0,1.5,0.7,1.5,1.5v50.5c0,0.8-0.7,1.5-1.5,1.5h-5c-0.8,0-1.5-0.7-1.5-1.5V404.3z M718,404.3c0-0.8,0.6-1.5,1.5-1.5h20.8
				c9.2,0,16.6,7.3,16.6,16.3c0,7-4.7,12.8-11.3,15.5l10.5,19.4c0.5,1,0,2.2-1.3,2.2h-6c-0.6,0-1.1-0.4-1.2-0.7l-10.2-20.2h-11.5
				v19.5c0,0.8-0.7,1.5-1.5,1.5h-5c-0.8,0-1.5-0.7-1.5-1.5V404.3z M739.6,428.8c5,0,9.3-4.2,9.3-9.5c0-5-4.4-9.1-9.3-9.1H726v18.5
				H739.6z"/>
		</g>
	</g>
</g>
</svg>
