<?xml version="1.0" encoding="utf-8"?>
<!-- Generator: Adobe Illustrator 24.2.1, SVG Export Plug-In . SVG Version: 6.00 Build 0)  -->
<svg version="1.1" id="Layer_1" xmlns="http://www.w3.org/2000/svg" xmlns:xlink="http://www.w3.org/1999/xlink" x="0px" y="0px"
	 viewBox="0 0 500 500" style="enable-background:new 0 0 500 500;" xml:space="preserve">
<style type="text/css">
	.st0{fill:#FBB03B;}
	.st1{fill:#303033;}
</style>
<g>
	<g>
		<path class="st0" d="M399.61,395.16c0.42-0.7,0.91-1.33,1.47-1.89c3.5-5.11,15.18-23.99,20.42-52.8c0.49-2.73,3.5-4.27,5.87-2.87
			c0.56,0.28,0.91,0.77,0.91,1.33c0,2.06-1.76,27.46-12.65,47.97c3.59-1.17,8.61-3.27,14.16-6.93c15.08-11.07,32.86-33.7,37.1-79.71
			c3.71-40.01-1.54-75.88-15.88-106.59c-13.85-30.35-33.08-48.47-46.72-58.4c-2.45-1.75-3.92-4.48-4.13-7.41
			c0-0.42-2.8-39.8-14.34-60.99c-6.92-12.8-13.08-19.93-17.14-23.64c-0.06-0.05-0.12-0.09-0.18-0.14
			c-6.88,3.69-22.95,17.58-36.75,36.86c-18.25,25.53-32.38,27.28-36.72,27.63c-0.21,0-0.49,0-0.7,0c-1.9,0-3.75-0.54-5.35-1.58
			c-2.12-0.19-4.1-1.06-5.71-2.48c-0.12-0.06-6.13-5.16-16.78-9.33c-2.08-0.66-4.28-1.26-6.62-1.78c1.42,8.1,5.63,13.26,8.37,15.86
			c1.4,1.26,3.08,2.1,4.97,2.38c50.85,8.04,75.11,29.86,80.36,35.18c0.63,0.7,0.84,1.75,0.42,2.59l-1.05,2.24
			c-0.7,1.4-2.59,1.75-3.71,0.63c-18.88-18.04-75.32-31.54-65.6-23.5c10.14,8.39,32.52,42.66,32.52,45.46c0,1.54-1.82,2.94-3.5,3.92
			c-1.47,0.84-3.36,0.42-4.34-0.98c-5.67-8.32-25.39-36.51-35.81-44.2c-12.24-9.09-37.77-9.09-53.15,2.8
			c-14.27,10.98-23.43,50.01-24.83,51.76c-1.05,1.33-5.53,0.14-7.48-0.42c-0.49-0.14-0.84-0.63-0.77-1.19
			c2.1-19.44,16.02-42.94,16.72-52.24c0.7-9.44-6.64-9.09-6.64-9.09c-37.56,5.32-63.99,41.26-66.44,41.96
			c-1.61,0.42-3.01-1.05-3.85-2.1c-0.42-0.56-0.49-1.4-0.14-2.03c20.91-37.35,65.53-45.95,74.7-47.35c1.33-0.21,2.66-0.7,3.78-1.47
			c5.19-3.75,8.41-11.08,12.32-21.76c-12.1,1.07-27.42,4.28-38.48,13.09c-1.75,1.4-3.99,2.17-6.22,2.17c-0.56,0-1.12-0.07-1.75-0.14
			c-1.26-0.22-2.44-0.69-3.5-1.36c-0.23,0.02-0.46,0.03-0.69,0.03c-0.56,0-1.19-0.07-1.75-0.14c-2.8-0.49-5.32-2.24-6.78-4.69
			c-0.07-0.07-6.08-9.65-21.96-23.01c-15.46-13-24.74-19.17-30.17-22.12c-3.21,2.71-10.18,10.57-16.48,24.15
			c-6.08,13.08-10.84,34.62-9.16,62.88c0.21,3.5-1.47,6.85-4.34,8.81c-0.42,0.28-46.58,30.84-45.25,114
			c0.63,38.61,8.74,73.58,23.01,98.47c11.95,20.87,27.25,33.07,43.54,34.92c-6.73-13.42-11.41-31.36-12.14-34.01
			c-0.28-0.98,0-1.75,0.49-2.31c1.61-1.75,4.48-1.12,5.39,1.05c5.5,13.82,12.85,27.59,17,35.01c0.23-0.04,0.46-0.07,0.69-0.11
			c0.63-0.14,1.19-0.14,1.82-0.14c3.57,0,6.85,1.82,8.53,5.11c0.97,1.6,16.37,26.33,61.12,26.57c-9.2-15.37-13.78-37.24-12.58-39.57
			c1.47-2.87,6.15,0.91,6.15,0.91c5.63,16.81,14.74,30.56,20.28,37.97c0.45-0.05,0.89-0.08,1.33-0.13c0.35-0.07,0.7-0.07,1.05-0.07
			c2.73,0,5.32,1.12,7.2,3.15c0.77,0.84,19.58,20.35,52.31,20.35c2.66,0,5.39-0.14,8.04-0.42c17.83-1.73,30.68-6.69,39.36-11.55
			c6.76-4.42,10.05-8.24,10.51-8.8c0.49-0.7,1.05-1.26,1.68-1.75c3.78-5.25,18.95-26.79,23.08-46.09c0.63-3.08,4.41-4.55,6.85-2.52
			c0.77,0.63,1.26,1.54,1.12,2.73c-1.49,11.34-8.26,29.92-15.81,42.1c2.65,0.43,7.13,0.98,12.66,0.98c11.58,0,26-2.37,39.2-11.18
			C388.46,410.29,394.46,403.78,399.61,395.16z M165.8,327.11c-11.12,0-20.14-6.99-20.14-15.6s9.02-15.6,20.14-15.6
			s20.14,6.99,20.14,15.6S176.92,327.11,165.8,327.11z M341.84,327.11c-11.12,0-20.14-6.99-20.14-15.6s9.02-15.6,20.14-15.6
			s20.14,6.99,20.14,15.6S352.96,327.11,341.84,327.11z"/>
	</g>
	<path class="st1" d="M338.83,102.75c-1.4,4.27,0.49,8.95,4.55,10.98c10.63,5.32,29.3,12.94,34.13,14.76
		c4.41,1.61-1.4-60.85-13.43-61.9C357.72,66.03,347.3,77.57,338.83,102.75z"/>
	<path class="st1" d="M105.1,132.89c5.94-3.85,15.18-9.44,24.41-13.36c2.73-1.19,3.99-4.27,2.94-7.06
		c-4.76-12.03-17-40.7-23.36-38.26c-7.34,2.87-17.83,27.14-12.31,55.11C97.47,133.17,101.88,134.99,105.1,132.89z"/>
	<g>
		<path class="st1" d="M180.49,228.15c0,0-9.79-0.07-13.99,17.83c-4.62,19.65,9.79,30.07,18.18,24.48
			c8.39-5.6,10.84-17.14,10.84-22.73S192.38,228.15,180.49,228.15z"/>
		<path class="st1" d="M327.15,228.15c0,0,9.79-0.07,13.99,17.83c4.62,19.65-9.79,30.07-18.18,24.48s-10.84-17.14-10.84-22.73
			S315.27,228.15,327.15,228.15z"/>
	</g>
	<g>
		<g>
			<path class="st1" d="M122.37,262.91c0,0-32.52-7.76-34.76-5.8c-2.24,2.03-2.66,6.64-1.12,8.32c1.54,1.68,34.41,7.41,35.95,5.32
				C123.91,268.64,124.19,263.33,122.37,262.91z"/>
			<path class="st1" d="M123.63,284.66c0,0-37.56,17.14-37.56,20.49s2.24,8.39,4.13,7.97c1.89-0.42,37.07-19.09,37.07-20.35
				C127.27,291.51,125.73,283.68,123.63,284.66z"/>
		</g>
		<g>
			<path class="st1" d="M385.27,262.91c0,0,32.52-7.76,34.76-5.8c2.24,2.03,2.66,6.64,1.12,8.32c-1.54,1.68-34.41,7.41-35.95,5.32
				C383.74,268.64,383.46,263.33,385.27,262.91z"/>
			<path class="st1" d="M384.02,284.66c0,0,37.56,17.14,37.56,20.49s-2.24,8.39-4.13,7.97s-37.07-19.09-37.07-20.35
				C380.38,291.51,381.92,283.68,384.02,284.66z"/>
		</g>
	</g>
	<g>
		<path class="st1" d="M324.85,200.87c0,0-1.05,3.85,0.7,7.34c1.75,3.5,24.83,4.55,26.23,3.5c1.4-1.05,2.66-8.04,0.63-8.74
			C350.37,202.27,327.99,197.72,324.85,200.87z"/>
		<path class="st1" d="M182.8,200.87c0,0,1.05,3.85-0.7,7.34c-1.75,3.5-24.83,4.55-26.23,3.5c-1.4-1.05-2.66-8.04-0.63-8.74
			C157.27,202.27,179.65,197.72,182.8,200.87z"/>
	</g>
	<path class="st1" d="M410.38,127.08c0,0-2.8-41.75-15.6-65.11s-25.46-33.29-30.42-31.82c-4.97,1.47-29.02,15.6-46.72,40.36
		c-17.69,24.76-27.63,25.46-27.63,25.46s-10.98-9.72-30.21-14.55c0.07-0.49,0.14-1.05,0.21-1.54c3.5-21.33,11.19-35.67,9.09-39.17
		c-2.1-3.5-20.98-8.39-24.48-6.99c-3.5,1.4-12.24,15.04-20.98,38.12c-0.91,2.38-1.75,4.62-2.52,6.78
		c-13.92,0.14-38.19,2.52-54.97,15.95c0,0-6.36-10.63-24.06-25.46c-17.69-14.83-36.79-29.02-45.32-26.93
		c-8.53,2.1-39.66,39.66-36.09,99.1c0,0-49.52,33.29-48.12,123.86s41.75,152.89,90.57,144.36c0,0,21.26,38.19,87.07,31.12
		c0,0,25.46,27.63,69.38,23.36c43.85-4.27,61.55-26.93,61.55-26.93s56.58,14.13,87.07-36.79c0,0,60.15-7.06,68.61-99.1
		C485.29,209.12,446.47,153.31,410.38,127.08z M230.92,85.4c3.85-12.59,11.12-33.71,16.37-36.37c6.29-3.15,5.46,1.05,5.46,1.05
		s-8.25,12.59-13.57,37.49c-0.49,2.45-3.01,3.92-5.39,3.22C231.55,90.09,230.22,87.64,230.92,85.4z M466.89,300.25
		c-5.8,63.02-37,82.18-51.9,87.84c11.47-20.7,13.29-47.07,13.29-49.17c0-0.56-0.35-1.05-0.91-1.33c-2.38-1.4-5.39,0.14-5.87,2.87
		c-5.25,28.82-16.93,47.7-20.42,52.8c-0.56,0.56-1.05,1.19-1.47,1.89c-16.65,27.84-42.1,33.71-60.57,33.71
		c-4.27,0-7.9-0.35-10.63-0.7c8.25-11.96,16.02-32.66,17.62-44.9c0.14-1.19-0.35-2.1-1.12-2.73c-2.45-2.03-6.22-0.56-6.85,2.52
		c-4.13,19.3-19.3,40.84-23.08,46.09c-0.63,0.49-1.19,1.05-1.68,1.75c-1.05,1.26-16.72,19.44-54.62,23.08
		c-2.73,0.28-5.46,0.42-8.18,0.42c-29.72,0-48.05-15.95-52.1-19.79l-0.14-0.28c0,0-16.51-18.46-25.04-43.92c0,0-4.69-3.78-6.15-0.91
		c-1.26,2.45,3.85,26.44,13.99,41.82c-2.24,0.14-4.48,0.21-6.64,0.21c-45.81,0-61.55-25.25-62.53-26.86
		c-0.49-0.91-1.05-1.68-1.75-2.38c-2.45-4.2-12.59-21.89-19.65-39.66c-0.91-2.17-3.78-2.8-5.39-1.05c-0.49,0.56-0.77,1.33-0.49,2.31
		c0.77,2.8,5.94,22.66,13.29,36.23c-1.19,0.14-2.45,0.14-3.64,0.14c-18.11,0-35.32-12.66-48.47-35.6
		c-14.41-25.18-22.66-60.57-23.29-99.66c-1.33-84.14,43.22-115.05,43.71-115.33c2.94-1.96,4.62-5.39,4.41-8.95
		c-1.68-28.61,5.25-50.43,11.4-63.64c5.18-11.19,10.77-18.53,14.48-22.38c1.68-1.75,4.27-2.24,6.5-1.26
		c4.9,2.31,14.55,8.18,32.59,23.36c15.88,13.36,21.89,22.94,21.96,23.01c1.47,2.45,3.99,4.2,6.78,4.69
		c0.56,0.07,1.19,0.14,1.75,0.14c2.24,0,4.48-0.77,6.29-2.24c13.15-10.49,32.31-13.15,45.11-13.64
		c-4.27,11.82-7.55,19.86-13.08,23.85c-1.12,0.77-2.45,1.26-3.78,1.47c-9.16,1.4-53.78,10-74.7,47.35
		c-0.35,0.63-0.28,1.47,0.14,2.03c0.84,1.05,2.24,2.52,3.85,2.1c2.45-0.7,28.88-36.65,66.44-41.96c0,0,7.34-0.35,6.64,9.09
		c-0.7,9.3-14.62,32.8-16.72,52.24c-0.07,0.56,0.28,1.05,0.77,1.19c1.96,0.56,6.43,1.75,7.48,0.42c1.4-1.75,10.56-40.77,24.83-51.76
		c15.39-11.89,40.91-11.89,53.15-2.8c10.42,7.69,30.14,35.88,35.81,44.2c0.98,1.4,2.87,1.82,4.34,0.98c1.68-0.98,3.5-2.38,3.5-3.92
		c0-2.8-22.38-37.07-32.52-45.46c-9.72-8.04,46.72,5.46,65.6,23.5c1.12,1.12,3.01,0.77,3.71-0.63l1.05-2.24
		c0.42-0.84,0.21-1.89-0.42-2.59c-5.25-5.32-29.51-27.14-80.36-35.18c-1.89-0.28-3.57-1.12-4.97-2.38
		c-2.8-2.66-7.13-7.97-8.46-16.37c14.83,4.27,23.36,11.54,23.5,11.61c1.82,1.61,4.13,2.52,6.57,2.52c0.28,0,0.49,0,0.77,0
		c4.41-0.28,16.58-3.85,35.04-29.65c12.24-17.14,27.77-28.75,36.16-33.85c2.17-1.33,4.97-1.05,6.85,0.7
		c4.06,3.71,10.21,10.84,17.14,23.64c11.54,21.19,14.34,60.57,14.34,60.99c0.21,2.94,1.68,5.67,4.13,7.41
		c13.64,9.93,32.87,28.05,46.72,58.4C465.36,224.37,470.6,260.25,466.89,300.25z"/>
	<path class="st1" d="M312.5,298.34c-0.14,0.14-12.45,11.4-29.72,7.2c-14.76-3.57-20.7-18.46-22.1-22.66
		c3.85-2.52,10.14-7.2,9.02-10.49c-1.61-4.69-20.77-3.71-24.13-0.28c-2.24,2.31,4.2,7.27,8.53,10.21
		c-0.98,3.15-6.71,19.44-22.24,23.22c-17.14,4.2-29.23-6.71-29.72-7.2c-1.26-1.19-3.29-1.12-4.48,0.14
		c-1.19,1.26-1.12,3.29,0.14,4.48c0.42,0.35,6.92,6.29,17.21,8.74c0.56,3.85,2.45,15.32,6.15,16.72c3.5,1.26,6.43-10.77,7.48-15.88
		c1.54-0.21,3.08-0.49,4.69-0.84c13.15-3.22,20.35-13.29,23.99-20.49c3.57,7.2,10.84,17.28,23.99,20.49
		c1.61,0.42,3.15,0.7,4.69,0.84c1.05,5.18,3.99,17.21,7.48,15.88c3.71-1.33,5.6-12.8,6.15-16.72c10.35-2.45,16.86-8.39,17.21-8.74
		c1.26-1.19,1.33-3.15,0.14-4.48C315.79,297.22,313.83,297.15,312.5,298.34z"/>
</g>
</svg>
